<?xml version="1.0" standalone="no"?>
<!DOCTYPE svg PUBLIC "-//W3C//DTD SVG 1.1//EN" "http://www.w3.org/Graphics/SVG/1.1/DTD/svg11.dtd" >
<svg>
<metadata>
Created by FontForge 20090622 at Mon Feb  4 08:18:37 2019
 By deploy user
 2000 PARACHUTE Type &#38; Image Corp. Designed by Panos Vassiliou. Based on Paul Renner&#200;&#147; Futura 7
</metadata>
<defs>
<font id="PFFuturaNeuThin-Regular" horiz-adv-x="620" >
  <font-face 
    font-family="PF Futura Neu Thin"
    font-weight="400"
    font-stretch="normal"
    units-per-em="1000"
    panose-1="2 0 3 4 6 0 0 2 0 4"
    ascent="760"
    descent="-240"
    x-height="462"
    cap-height="754"
    bbox="-143 -270 1083 1006"
    underline-thickness="75"
    underline-position="-150"
    unicode-range="U+0020-U+E003"
  />
<missing-glyph horiz-adv-x="1000" 
 />
    <glyph glyph-name=".notdef" horiz-adv-x="1000" 
 />
    <glyph glyph-name=".null" horiz-adv-x="0" 
 />
    <glyph glyph-name="nonmarkingreturn" horiz-adv-x="333" 
 />
    <glyph glyph-name="space" unicode=" " horiz-adv-x="310" 
 />
    <glyph glyph-name="space" unicode="&#xa0;" horiz-adv-x="310" 
 />
    <glyph glyph-name="exclam" unicode="!" horiz-adv-x="320" 
d="M144 146l-1 608h34v-608h-33zM160 -10q-14 0 -24 10t-10 24t10 24t24 10t24 -10t10 -24t-10 -24t-24 -10z" />
    <glyph glyph-name="quotedbl" unicode="&#x22;" horiz-adv-x="278" 
d="M202 514h-13l-9 240h32zM88 514h-13l-9 240h32z" />
    <glyph glyph-name="numbersign" unicode="#" 
d="M409 267l29 181h117v33h-112l33 217h-35l-32 -217h-151l32 217h-35l-32 -217h-129v-33h125l-25 -181h-128v-34h123l-33 -233h33l33 233h150l-36 -233h31l37 233h125v34h-120zM226 267l27 181h151l-27 -181h-151z" />
    <glyph glyph-name="dollar" unicode="$" 
d="M340 -121v113q80 17 135 77.5t55 137.5q0 61 -29.5 98.5t-87.5 68.5l-74 38v318q77 -9 126 -87l25 21q-49 84 -151 97v108h-30v-106q-81 -6 -128.5 -57.5t-47.5 -129.5q0 -53 29 -88t82 -65q33 -18 66 -34v-363q-66 -4 -115 33.5t-75 99.5l-28 -13q56 -149 218 -155v-112
h30zM310 729h-1v-304q-10 6 -55 30q-88 51 -88 123q0 59 41 105t103 46zM446 312q51 -44 51 -100q0 -67 -43.5 -118t-114.5 -69v349q46 -22 60 -30q37 -24 47 -32z" />
    <glyph glyph-name="percent" unicode="%" horiz-adv-x="664" 
d="M180 474q61 0 103 40.5t42 102.5t-42 103t-103 41t-103 -41t-42 -103t42 -102.5t103 -40.5zM102 -4l18 -10l441 772l-20 11zM484 -7q61 0 103 40.5t42 101.5q0 63 -42 104t-103 41t-103 -41t-42 -104q0 -61 42 -101.5t103 -40.5zM180 733q48 0 83 -34t35 -82t-35 -81.5
t-83 -33.5t-83 33.5t-35 81.5t35 82t83 34zM484 252q48 0 83 -34t35 -83q0 -47 -35 -80.5t-83 -33.5t-83 33.5t-35 80.5q0 49 35 83t83 34z" />
    <glyph glyph-name="ampersand" unicode="&#x26;" horiz-adv-x="642" 
d="M498 131l98 -131h33l-110 149l103 120l-23 13l-99 -110l-196 273q49 35 75 56.5t48 57t22 74.5q0 57 -37.5 96t-92.5 39q-57 0 -98.5 -41.5t-41.5 -98.5q0 -16 3.5 -32t7.5 -27t15 -28.5l16 -25.5t20.5 -29.5l20.5 -28.5q-103 -61 -159 -117q-74 -76 -74 -160
q0 -81 55 -138t135 -57q65 0 131 38t148 108zM316 737q42 0 71 -30.5t29 -72.5t-21.5 -70t-61.5 -58q-36 -26 -48 -36l-25 38t-23 36q-25 40 -25 79q0 44 30 79t74 35zM227 395l54 36l198 -273q-48 -41 -82 -67t-85 -50.5t-93 -24.5q-68 0 -112.5 50t-44.5 119
q0 29 11.5 56.5t24.5 46t40.5 42t42.5 34z" />
    <glyph glyph-name="quotesingle" unicode="'" horiz-adv-x="222" 
d="M117 514h-13l-9 240h32z" />
    <glyph glyph-name="parenleft" unicode="(" horiz-adv-x="240" 
d="M141 -173l24 17q-62 231 -62 451q0 235 62 463l-24 18q-35 -94 -51.5 -226t-16.5 -255q0 -115 17 -245.5t51 -222.5z" />
    <glyph glyph-name="parenright" unicode=")" horiz-adv-x="240" 
d="M75 -156l24 -17q34 92 51 222.5t17 245.5q0 123 -16.5 255t-51.5 226l-24 -18q62 -228 62 -463q0 -220 -62 -451z" />
    <glyph glyph-name="asterisk" unicode="*" horiz-adv-x="619" 
d="M330 567l94 -127l-27 -21l-87 133l-88 -133l-26 20l93 128l-148 46l11 34l145 -53l-4 160h33l-4 -160l145 53l11 -34z" />
    <glyph glyph-name="plus" unicode="+" 
d="M327 239v-239h-33v239h-233v34h232v239h33v-239h233v-34h-232z" />
    <glyph glyph-name="comma" unicode="," horiz-adv-x="310" 
d="M111 -164l-17 7l64 229l30 -10z" />
    <glyph glyph-name="hyphen" unicode="-" horiz-adv-x="190" 
d="M8 297l-1 45h176v-45h-175z" />
    <glyph glyph-name="period" unicode="." horiz-adv-x="310" 
d="M155 -3q14 0 24 10t10 24t-10 24t-24 10t-24 -10t-10 -24t10 -24t24 -10z" />
    <glyph glyph-name="slash" unicode="/" horiz-adv-x="640" 
d="M69 -139l-24 12l528 949l22 -11z" />
    <glyph glyph-name="zero" unicode="0" 
d="M310 -10q66 0 119 38.5t84 98.5t47.5 126t16.5 129t-17 128t-48.5 123t-84.5 94.5t-117 36.5t-117 -36.5t-84.5 -94.5t-48.5 -123t-17 -128t16.5 -129t47.5 -126t84 -98.5t119 -38.5zM310 733q48 0 89 -25t67 -63.5t44 -86.5t26 -92.5t8 -83.5q0 -55 -13.5 -115
t-40 -116.5t-73.5 -93t-107 -36.5t-107 36.5t-73.5 93t-40 116.5t-13.5 115q0 39 8 83.5t26 92.5t44 86.5t67 63.5t89 25z" />
    <glyph glyph-name="one" unicode="1" 
d="M316 0v723h-115l16 31h132v-754h-33z" />
    <glyph glyph-name="two" unicode="2" 
d="M484 410q46 73 46 136q0 92 -64 155t-155 63q-48 0 -94.5 -21t-78.5 -58q-40 -44 -45 -133h32q0 78 53.5 129.5t132.5 51.5q76 0 131 -53t55 -131q0 -83 -99 -199q-6 -8 -42 -48l-270 -302h441v31h-368l230 261q70 78 95 118z" />
    <glyph glyph-name="three" unicode="3" 
d="M300 -10q91 0 152.5 63t61.5 156q0 60 -35.5 110.5t-101.5 75.5q126 59 126 179q0 80 -55 135t-134 55q-82 0 -130.5 -47t-56.5 -129h33q6 67 46.5 106t106.5 39q64 0 110.5 -46t46.5 -111q0 -71 -46 -117.5t-115 -50.5v-31q73 -2 122.5 -49.5t49.5 -121.5
q0 -75 -54 -130t-128 -55q-70 0 -114.5 42.5t-52.5 110.5h-33q2 -80 60.5 -132t140.5 -52z" />
    <glyph glyph-name="four" unicode="4" 
d="M460 772l-1 -596h107v-30h-106v-146h-33v146h-405zM426 656h-6l-338 -474v-6h344v480z" />
    <glyph glyph-name="five" unicode="5" 
d="M205 500l68 223h251v31h-274l-91 -303q51 27 102 27q93 0 160.5 -64.5t67.5 -158.5q0 -100 -66.5 -167t-164.5 -67q-54 0 -103 26.5t-80 71.5l-30 -13q35 -54 91.5 -85t120.5 -31q112 0 188.5 75t76.5 189q0 106 -72 180t-177 74h-30q-14 0 -38 -8z" />
    <glyph glyph-name="six" unicode="6" 
d="M497 71q-72 -81 -188 -81q-107 0 -183.5 76t-76.5 185q0 86 54 164l239 346l27 -21l-166 -238l4 -7q42 18 108 18q105 0 180.5 -78t75.5 -184q0 -99 -74 -180zM310 483q-93 0 -160.5 -68.5t-67.5 -162.5q0 -96 67 -163.5t161 -67.5q93 0 160.5 67.5t67.5 163.5
q0 94 -67.5 162.5t-160.5 68.5z" />
    <glyph glyph-name="seven" unicode="7" 
d="M75 -5l-25 20l493 708h-466v31h525z" />
    <glyph glyph-name="eight" unicode="8" 
d="M310 -10q87 0 149.5 58.5t62.5 144.5q0 135 -133 200q56 29 86 75.5t30 100.5q0 84 -56 139.5t-139 55.5q-82 0 -138.5 -56t-56.5 -139q0 -54 30 -100.5t86 -75.5q-133 -65 -133 -200q0 -86 62.5 -144.5t149.5 -58.5zM310 733q66 0 114 -48t48 -115t-48 -115t-114 -48
t-114 48t-48 115t48 115t114 48zM310 376q73 0 126 -51.5t53 -125.5t-53 -126t-126 -52t-126 52t-53 126t53 125.5t126 51.5z" />
    <glyph glyph-name="nine" unicode="9" 
d="M517 340l-239 -345l-27 21l167 238l-7 7q-43 -18 -106 -18q-105 0 -180.5 77.5t-75.5 183.5q0 109 77.5 184.5t184.5 75.5q110 0 185 -76.5t75 -188.5q0 -80 -54 -159zM311 733q-94 0 -161.5 -67.5t-67.5 -162.5q0 -94 68 -162t161 -68t160 68t67 162q0 96 -67 163
t-160 67z" />
    <glyph glyph-name="colon" unicode=":" horiz-adv-x="310" 
d="M155 403q14 0 24 10t10 24q0 15 -10 25t-24 10t-24 -10t-10 -25q0 -14 10 -24t24 -10zM155 -10q14 0 24 10t10 25q0 14 -10 24t-24 10t-24 -10t-10 -24q0 -15 10 -25t24 -10z" />
    <glyph glyph-name="semicolon" unicode=";" horiz-adv-x="310" 
d="M161 403q14 0 24 10t10 25q0 14 -10 24t-24 10t-24 -10t-10 -24q0 -15 10 -25t24 -10zM94 -158l17 -6l77 217l-30 9z" />
    <glyph glyph-name="semicolon" unicode="&#x37e;" horiz-adv-x="310" 
d="M161 403q14 0 24 10t10 25q0 14 -10 24t-24 10t-24 -10t-10 -24q0 -15 10 -25t24 -10zM94 -158l17 -6l77 217l-30 9z" />
    <glyph glyph-name="less" unicode="&#x3c;" 
d="M61 279l1 -45l497 -235v31l-471 226l471 215v31z" />
    <glyph glyph-name="equal" unicode="=" 
d="M61 365l1 -35h497v35h-498zM61 182v-35h498v35h-498z" />
    <glyph glyph-name="greater" unicode="&#x3e;" 
d="M61 30l1 -31l497 235v45l-498 223v-31l471 -215z" />
    <glyph glyph-name="question" unicode="?" horiz-adv-x="491" 
d="M257 413q81 19 121 58.5t40 116.5q0 78 -47.5 127t-125.5 49q-70 0 -121 -44.5t-51 -112.5q0 -19 6 -57h31q-3 15 -3 46q0 58 39 97.5t98 39.5q62 0 101.5 -43t39.5 -104q0 -31 -8.5 -54.5t-20.5 -37.5t-34.5 -25.5t-40 -17t-48.5 -13.5q-67 -18 -102.5 -52.5
t-35.5 -96.5t44 -103t107 -41q65 0 107 42.5t42 106.5h-34q-2 -50 -32 -84t-81 -34q-52 0 -86 32.5t-34 83.5q0 25 8.5 45t18.5 31t31 21t33.5 13.5zM243 -10q14 0 24 10t10 24t-10 24t-24 10t-24 -10t-10 -24t10 -24t24 -10z" />
    <glyph glyph-name="at" unicode="@" horiz-adv-x="800" 
d="M527 154q80 0 153 86.5t73 201.5q0 139 -98 230.5t-240 91.5q-150 0 -259 -112.5t-109 -271.5q0 -163 107.5 -276.5t264.5 -113.5q106 0 189.5 45t126.5 121h-39q-43 -67 -116.5 -102.5t-160.5 -35.5q-138 0 -241.5 105.5t-103.5 249.5q0 145 101.5 254t241.5 109
q122 0 215.5 -81.5t93.5 -208.5q0 -86 -60 -175t-125 -89q-43 0 -49.5 25.5t8.5 56.5l100 321h-29l-18 -58q-49 78 -122 78q-67 0 -122.5 -48.5t-84 -118.5t-28.5 -142q0 -63 33.5 -102.5t92.5 -39.5q71 0 134 56q17 -56 71 -56zM423 577q54 0 87 -41.5t22 -77.5l-47 -150
q-16 -48 -57 -86t-91 -40q-53 -2 -83.5 34t-30.5 87q0 54 26 117t73.5 110t100.5 47z" />
    <glyph glyph-name="A" unicode="A" horiz-adv-x="641" 
d="M592 0l-101 253h-341l-101 -253h-33l305 766l304 -766h-33zM321 683l-159 -400h317z" />
    <glyph glyph-name="B" unicode="B" horiz-adv-x="565" 
d="M445 53q-61 -53 -171 -53h-186v754h144q51 0 86.5 -8t64.5 -35q61 -54 61 -153q0 -53 -23 -91.5t-78 -69.5q81 -17 125.5 -67.5t44.5 -122.5q0 -95 -68 -154zM345 698q-39 25 -133 25h-91v-318h91h37q62 0 102 30q34 25 47 55.5t13 74.5q0 89 -66 133zM397 349
q-50 25 -162 25h-114v-343h123q39 0 57.5 1t48.5 8t52 22q78 54 78 143q0 46 -21.5 85t-61.5 59z" />
    <glyph glyph-name="C" unicode="C" horiz-adv-x="739" 
d="M429 -10q133 0 244 92v44q-44 -47 -113.5 -76t-132.5 -29q-67 0 -132.5 29.5t-114.5 78.5q-104 102 -104 243q0 145 104 253t247 108q66 0 132.5 -29.5t113.5 -78.5v43q-105 96 -243 96q-158 0 -272.5 -114t-114.5 -274q0 -158 115.5 -272t270.5 -114z" />
    <glyph glyph-name="D" unicode="D" horiz-adv-x="652" 
d="M496 100q114 111 114 276q0 168 -118 283q-56 54 -121.5 74.5t-153.5 20.5h-129v-754h129q89 0 155.5 21.5t123.5 78.5zM465 638q112 -104 112 -262q0 -147 -103 -250q-92 -95 -258 -95h-95v692h95q78 0 137 -18.5t112 -66.5z" />
    <glyph glyph-name="E" unicode="E" horiz-adv-x="507" 
d="M88 754l1 -754h345v31h-313v367h305v31h-305v294h313v31h-346z" />
    <glyph glyph-name="F" unicode="F" horiz-adv-x="444" 
d="M122 723l-1 -294h250v-31h-249v-398h-34v754h290v-31h-256z" />
    <glyph glyph-name="G" unicode="G" horiz-adv-x="824" 
d="M703 112q80 88 78 243h-304v-31h271q-3 -72 -24.5 -124t-70.5 -93q-104 -86 -227 -86q-144 0 -247 105t-103 251q0 142 105 249t245 107q182 0 293 -161l27 22q-128 170 -317 170q-159 0 -272.5 -114t-113.5 -276q0 -155 113 -269.5t267 -114.5q79 0 153 32t127 90z" />
    <glyph glyph-name="H" unicode="H" horiz-adv-x="716" 
d="M595 0v397h-473v-397h-34v754h33v-326h473v326h34v-754h-33z" />
    <glyph glyph-name="I" unicode="I" horiz-adv-x="210" 
d="M89 0l-1 754h34v-754h-33z" />
    <glyph glyph-name="J" unicode="J" horiz-adv-x="218" 
d="M4 -158q-78 0 -116 73l24 19q35 -61 96 -61q29 0 48.5 12.5t27 35.5t10 42t2.5 46v745h34v-745q0 -81 -27 -124t-99 -43z" />
    <glyph glyph-name="K" unicode="K" horiz-adv-x="569" 
d="M514 0l-365 370l-27 -28v-342h-34v754h33v-370l369 370h43l-362 -363l385 -391h-42z" />
    <glyph glyph-name="L" unicode="L" horiz-adv-x="327" 
d="M89 0l-1 754h33v-723h193v-31h-225z" />
    <glyph glyph-name="M" unicode="M" horiz-adv-x="897" 
d="M848 0l-133 646h-4l-263 -658l-261 658h-5l-133 -646h-31l155 760l275 -693l276 693l155 -760h-31z" />
    <glyph glyph-name="N" unicode="N" horiz-adv-x="843" 
d="M122 673v-673h-34v752l633 -680v682h34v-767z" />
    <glyph glyph-name="O" unicode="O" horiz-adv-x="854" 
d="M427 -10q157 0 270.5 114t113.5 273t-113.5 273t-270.5 114t-270.5 -114t-113.5 -273q0 -158 114 -272.5t270 -114.5zM427 733q143 0 247 -105.5t104 -250.5t-104 -250.5t-247 -105.5q-144 0 -247.5 105t-103.5 251t103.5 251t247.5 105z" />
    <glyph glyph-name="P" unicode="P" horiz-adv-x="472" 
d="M377 412q-53 -47 -163 -47h-92v-365h-34v754h126q54 0 90.5 -8t67.5 -35q66 -59 66 -152q0 -94 -61 -147zM344 691h1q-42 32 -137 32h-87v-327h95q91 0 137 44q52 48 52 121q0 83 -61 130z" />
    <glyph glyph-name="Q" unicode="Q" horiz-adv-x="854" 
d="M790 0l-92 102q113 132 113 278q0 158 -113.5 271t-269.5 113q-158 0 -271.5 -113.5t-113.5 -273.5q0 -161 112.5 -274t271.5 -113q136 0 248 95l70 -85h45zM428 733q146 0 248 -107t102 -255q0 -130 -105 -244l-156 173h-47l181 -192q-106 -87 -221 -87q-146 0 -250 104
t-104 252q0 146 104 251t248 105z" />
    <glyph glyph-name="R" unicode="R" horiz-adv-x="488" 
d="M403 0l-246 364h-35v-364h-34v754h87q39 0 61.5 -1.5t53 -10t53.5 -25.5q73 -53 73 -159q0 -95 -59.5 -145t-163.5 -49l247 -364h-37zM298 705q-39 18 -138 18h-39v-328h69q94 0 137 37q56 48 56 128q0 47 -22 86t-63 59z" />
    <glyph glyph-name="S" unicode="S" horiz-adv-x="544" 
d="M265 -10q91 0 160 63t69 153q0 103 -82 146l-144 76l-19 10l-28 15q-44 25 -69 53.5t-25 72.5q0 64 43.5 109t106.5 45q98 0 155 -87l22 19q-26 46 -73 72.5t-101 26.5q-82 0 -134 -52.5t-52 -134.5q0 -91 75 -131l136 -73l50 -27q49 -27 77.5 -58t28.5 -78
q0 -79 -58 -134t-136 -55q-130 0 -186 136l-29 -13q28 -71 83.5 -112.5t129.5 -41.5z" />
    <glyph glyph-name="T" unicode="T" horiz-adv-x="450" 
d="M242 723v-723h-33v723h-196v31h424v-31h-195z" />
    <glyph glyph-name="U" unicode="U" horiz-adv-x="660" 
d="M578 225q-5 -95 -49 -148q-71 -87 -199 -87t-199 87q-44 53 -49 148q-1 9 -1 28v29v472h34v-457q0 -48 1.5 -74t10.5 -63t28 -62q29 -36 78.5 -56.5t96.5 -20.5t96.5 20.5t78.5 56.5q19 25 28 62t10.5 63t1.5 74v457h34v-472v-29q0 -19 -1 -28z" />
    <glyph glyph-name="V" unicode="V" horiz-adv-x="555" 
d="M276 -9l-260 763h32l225 -657h8l226 657h32z" />
    <glyph glyph-name="W" unicode="W" horiz-adv-x="1105" 
d="M838 -11l-287 708l-286 -707l-243 763h33l216 -674l283 701l283 -701l213 674h33z" />
    <glyph glyph-name="X" unicode="X" horiz-adv-x="494" 
d="M434 0l-188 356l-186 -356h-35l202 385l-194 369h36l177 -339l177 339h36l-193 -369l203 -385h-35z" />
    <glyph glyph-name="Y" unicode="Y" horiz-adv-x="559" 
d="M296 323v-323h-33v323l-246 431h36l226 -397l226 397h36z" />
    <glyph glyph-name="Z" unicode="Z" horiz-adv-x="568" 
d="M536 31h-454l460 723h-479v-31h423l-460 -723h510v31z" />
    <glyph glyph-name="bracketleft" unicode="[" horiz-adv-x="300" 
d="M72 754l1 -957h155v37h-123v883h123v37h-156z" />
    <glyph glyph-name="backslash" unicode="\" horiz-adv-x="640" 
d="M571 2l-525 809l21 12l527 -808z" />
    <glyph glyph-name="bracketright" unicode="]" horiz-adv-x="300" 
d="M72 -166l1 -37h155v957h-156v-37h123v-883h-123z" />
    <glyph glyph-name="asciicircum" unicode="^" 
d="M525 301l-215 431l-214 -431h-30l223 453h42l223 -453h-29z" />
    <glyph glyph-name="underscore" unicode="_" horiz-adv-x="500" 
d="M8 -188l-1 75h486v-75h-485z" />
    <glyph glyph-name="grave" unicode="`" horiz-adv-x="313" 
d="M201 552l-113 145l45 16l93 -149z" />
    <glyph glyph-name="a" unicode="a" horiz-adv-x="560" 
d="M453 86v-86h30v462h-30v-83h-6q-29 44 -78.5 68.5t-103.5 24.5q-99 0 -158.5 -67t-59.5 -171t60.5 -174t159.5 -70q53 0 104 25.5t76 70.5h6zM263 444q86 0 139.5 -58.5t53.5 -146.5q0 -93 -50 -157t-140 -64q-85 0 -137 64t-52 152q0 83 53 146.5t133 63.5z" />
    <glyph glyph-name="b" unicode="b" horiz-adv-x="560" 
d="M300 -10q-52 0 -104 25.5t-76 69.5h-5v-85h-31v825h30v-451h6q29 44 78.5 68t103.5 24q98 0 158.5 -67t60.5 -168q0 -102 -61 -171.5t-160 -69.5zM303 438q-89 0 -140.5 -59.5t-51.5 -148.5q0 -88 52 -150.5t138 -62.5q85 0 137.5 63.5t52.5 150.5q0 83 -53.5 145
t-134.5 62z" />
    <glyph glyph-name="c" unicode="c" horiz-adv-x="477" 
d="M269 -10q88 0 161 62v39q-70 -73 -163 -73q-84 0 -141 64t-57 150t57 149t142 63q90 0 156 -66v39q-62 55 -154 55q-98 0 -164.5 -69.5t-66.5 -170.5q0 -102 65.5 -172t164.5 -70z" />
    <glyph glyph-name="d" unicode="d" horiz-adv-x="560" 
d="M446 0v85h-6q-24 -44 -76 -69.5t-104 -25.5q-99 0 -160 69.5t-61 171.5q0 101 60.5 168t158.5 67q54 0 103.5 -24t78.5 -68h5v451h31v-825h-30zM256 438q-81 0 -134 -62.5t-53 -144.5q0 -87 52.5 -150.5t137.5 -63.5q90 0 140 63.5t50 155.5q0 86 -53.5 144t-139.5 58z
" />
    <glyph glyph-name="e" unicode="e" horiz-adv-x="510" 
d="M70 235h400q-2 102 -60 169.5t-154 67.5t-156.5 -69.5t-60.5 -170.5t60 -171.5t157 -70.5q133 0 197 118l-25 15q-27 -49 -70 -77t-96 -28q-86 0 -140 59.5t-52 157.5zM257 444q73 0 124 -52.5t61 -129.5h-373q6 77 60 129.5t128 52.5z" />
    <glyph glyph-name="f" unicode="f" horiz-adv-x="240" 
d="M115 428v-428h-30v428h-52v27h51v219q0 78 18 111q29 53 96 53q18 0 33 -5v-27l-10 2q-9 3 -20 3q-29 0 -48 -13t-27 -38t-10 -45.5t-2 -50.5v-209h117v-27h-116z" />
    <glyph glyph-name="g" unicode="g" horiz-adv-x="567" 
d="M438 -175q29 41 37 84.5t8 110.5v442h-31v-82h-5q-66 92 -178 92q-97 0 -160 -68.5t-63 -168.5q0 -98 61.5 -169t155.5 -71q124 0 184 97h6v-71q0 -121 -43 -183q-48 -73 -154 -73q-72 0 -126 43.5t-60 115.5h-30q8 -88 69 -137.5t151 -49.5q117 0 178 88zM263 444
q86 0 139.5 -58t53.5 -144q0 -92 -50 -155.5t-140 -63.5q-85 0 -137.5 63.5t-52.5 150.5q0 82 53 144.5t134 62.5z" />
    <glyph glyph-name="h" unicode="h" horiz-adv-x="490" 
d="M376 0v277q0 37 -3.5 61.5t-15 49.5t-36.5 37.5t-64 12.5q-142 0 -142 -213v-225h-31v825h30v-443h5q20 39 59 61t83 22q80 0 112.5 -46.5t32.5 -141.5v-277h-30z" />
    <glyph glyph-name="i" unicode="i" horiz-adv-x="234" 
d="M117 588q-14 0 -24 10t-10 25q0 14 10 24t24 10t24 -10t10 -24q0 -15 -10 -25t-24 -10zM101 0v457h31v-457h-31z" />
    <glyph glyph-name="j" unicode="j" horiz-adv-x="234" 
d="M117 589q-14 0 -24 10t-10 24t10 24t24 10t24 -10t10 -24t-10 -24t-24 -10zM101 -270v729h31v-729h-31z" />
    <glyph glyph-name="k" unicode="k" horiz-adv-x="427" 
d="M379 0l-232 239l-32 -35v-204h-31v825h30v-581l201 211h37l-186 -196l251 -259h-38z" />
    <glyph glyph-name="l" unicode="l" horiz-adv-x="199" 
d="M85 0l-1 825h31v-825h-30z" />
    <glyph glyph-name="m" unicode="m" horiz-adv-x="725" 
d="M611 0v298q0 32 -3.5 54.5t-14 45t-33 34.5t-56.5 12q-126 0 -126 -177v-267h-30v287q0 157 -111 157q-37 0 -62.5 -18t-37.5 -48.5t-17 -60t-5 -62.5v-255h-31v462h30v-60h5q15 33 49 51.5t72 18.5q92 0 125 -98q43 98 140 98q78 0 107 -46.5t29 -133.5v-292h-30z" />
    <glyph glyph-name="n" unicode="n" horiz-adv-x="490" 
d="M376 0v280q0 36 -4.5 62.5t-16.5 51.5t-36.5 38t-61.5 13q-40 0 -69 -20t-44 -53t-22 -69t-7 -75v-228h-31v462h30v-75h5q20 41 58.5 63t83.5 22q78 0 111.5 -48t33.5 -144v-280h-30z" />
    <glyph glyph-name="o" unicode="o" horiz-adv-x="547" 
d="M272 -10q99 0 167.5 69.5t68.5 171.5t-68.5 171.5t-167.5 69.5q-98 0 -165.5 -71t-67.5 -171q0 -98 68.5 -169t164.5 -71zM269 444q89 0 149 -61.5t60 -152.5q0 -89 -60.5 -150.5t-148.5 -61.5q-85 0 -142.5 63t-57.5 149q0 87 57.5 150.5t142.5 63.5z" />
    <glyph glyph-name="p" unicode="p" horiz-adv-x="560" 
d="M302 -5q-54 0 -104.5 24t-78.5 68h-4v-357h-31v732h30v-85h5q24 43 76.5 69t104.5 26q99 0 160 -69.5t61 -172.5t-60 -169t-159 -66zM301 444q-88 0 -139 -64.5t-51 -156.5q0 -87 53.5 -143.5t138.5 -56.5q82 0 135 61t53 145q0 87 -52.5 151t-137.5 64z" />
    <glyph glyph-name="q" unicode="q" horiz-adv-x="560" 
d="M446 -270v357h-6q-28 -44 -78 -68t-104 -24q-98 0 -158.5 66t-60.5 168q0 104 60.5 173.5t160.5 69.5q54 0 104.5 -24.5t75.5 -70.5h5v85h31v-732h-30zM259 444q-88 0 -139 -64.5t-51 -156.5q0 -87 53.5 -143.5t138.5 -56.5q84 0 136 58.5t52 147.5q0 90 -52 152.5
t-138 62.5z" />
    <glyph glyph-name="r" unicode="r" horiz-adv-x="278" 
d="M246 437q-13 7 -29 7q-39 0 -63 -25.5t-31.5 -56t-7.5 -65.5v-61v-236h-31v462h30v-59h5q28 69 105 69q17 0 38 -7z" />
    <glyph glyph-name="s" unicode="s" horiz-adv-x="375" 
d="M187 -10q60 0 101 40t41 101q0 54 -28.5 82.5t-79.5 47.5q-27 9 -42 16q-23 10 -37 18.5t-26.5 26t-12.5 40.5q0 35 26.5 58.5t60.5 23.5q57 0 84 -51l26 14q-16 29 -46 47t-62 18q-49 0 -84 -31.5t-35 -81.5q0 -26 10.5 -46.5t32.5 -35.5t39.5 -23t48.5 -20
q22 -8 35 -14t29 -17.5t23.5 -29t7.5 -40.5q0 -48 -33 -81.5t-79 -33.5q-88 0 -120 95l-30 -10q15 -53 55.5 -83t94.5 -30z" />
    <glyph glyph-name="t" unicode="t" horiz-adv-x="209" 
d="M120 430v-430h-30v430h-52v28h51v169h30v-169h82v-28h-81z" />
    <glyph glyph-name="u" unicode="u" horiz-adv-x="472" 
d="M392 113q-5 -38 -24 -62q-46 -61 -132 -61t-132 61q-13 18 -19.5 43.5t-7 41t-0.5 48.5v278h30v-262q0 -41 4 -68.5t16 -56t39 -43t70 -14.5q34 0 58.5 10.5t38 26.5t20.5 42t9 48t2 55v262h31v-278v-36q0 -18 -3 -35z" />
    <glyph glyph-name="v" unicode="v" horiz-adv-x="433" 
d="M217 -13l-201 475h30l172 -405l169 405h30z" />
    <glyph glyph-name="w" unicode="w" horiz-adv-x="752" 
d="M538 -13l-163 412l-162 -412l-197 474h30l168 -403l163 416l164 -416l165 403h30z" />
    <glyph glyph-name="x" unicode="x" horiz-adv-x="443" 
d="M390 0l-169 224l-168 -224h-34l183 244l-167 218h35l151 -198l152 198h35l-167 -218l183 -244h-34z" />
    <glyph glyph-name="y" unicode="y" horiz-adv-x="460" 
d="M145 -270h-30l108 260l-218 472h30l202 -438l182 438h30z" />
    <glyph glyph-name="z" unicode="z" horiz-adv-x="480" 
d="M466 28h-385l377 434h-387v-28h327l-378 -434h446v28z" />
    <glyph glyph-name="braceleft" unicode="{" horiz-adv-x="300" 
d="M122 134v-179q0 -84 27.5 -119t102.5 -39v30q-98 0 -98 88v188q0 73 -16.5 106.5t-56.5 60.5v13q41 26 57.5 58t16.5 104v189q0 88 97 88v32q-76 -4 -103.5 -39t-27.5 -120v-179q0 -42 -17.5 -68t-55.5 -53v-36q39 -30 56.5 -56.5t17.5 -68.5z" />
    <glyph glyph-name="bar" unicode="|" horiz-adv-x="320" 
d="M144 0l-1 825h34v-825h-33z" />
    <glyph glyph-name="braceright" unicode="}" horiz-adv-x="300" 
d="M179 -45v179q0 42 17.5 68.5t55.5 56.5v36q-38 27 -56 53t-18 68v179q0 85 -27 120t-103 39v-32q98 0 98 -88v-189q0 -71 16.5 -103.5t56.5 -58.5v-13q-41 -27 -57.5 -60.5t-16.5 -106.5v-188q0 -88 -97 -88v-30q76 4 103.5 39t27.5 119z" />
    <glyph glyph-name="asciitilde" unicode="~" 
d="M420 186q75 0 135 111l-34 18q-43 -87 -100 -87q-17 0 -49 15q-5 2 -57 31q-74 39 -114 39q-22 0 -41 -7.5t-38.5 -28t-27 -30t-28.5 -38.5l32 -18q25 39 48 60t55 21q38 0 113 -44q68 -42 106 -42z" />
    <glyph glyph-name="sterling" unicode="&#xa3;" 
d="M415 -10q-34 0 -110 30t-105 30q-48 0 -108 -56l-18 28q54 61 127 59q69 60 69 129l-4 37h-124v31h118l-88 152l-27.5 49.5t-16.5 42.5t-9 57q0 79 57.5 132t136.5 53q77 0 131 -55t54 -133h-34q-2 69 -45 113t-112 44q-63 0 -109 -48t-46 -111q0 -46 48 -124l24 -39
l26 -43q27 -51 44 -90h134v-31h-128l3 -42q4 -63 -64 -131l22 -7q7 -3 32 -12.5l42 -16t38.5 -12t35.5 -5.5q34 0 62.5 23.5t46.5 56.5l28 -16q-22 -40 -57 -67.5t-74 -27.5z" />
    <glyph glyph-name="yen" unicode="&#xa5;" 
d="M391 436h140v-31h-157l-53 -92h210v-30h-204v-283h-33v283h-205v30h210l-52 92h-158v31h140l-181 318h41l221 -392l221 392h41z" />
    <glyph glyph-name="brokenbar" unicode="&#xa6;" horiz-adv-x="547" 
d="M336 600q-18 0 -62 20q-44 21 -71 21q-32 0 -48 -37l-17 13q28 55 69 55q23 0 67 -19q3 -1 15 -6.5t18 -7.5q18 -7 33 -7q34 0 51 38l17 -14q-8 -24 -28.5 -40t-43.5 -16zM272 -10q-96 0 -164.5 70t-68.5 168q0 99 67.5 169t165.5 70q100 0 168 -68.5t68 -169.5
q0 -102 -68.5 -170.5t-167.5 -68.5zM269 440q-85 0 -142.5 -63t-57.5 -149t57.5 -148t142.5 -62q88 0 148.5 60.5t60.5 149.5q0 91 -60 151.5t-149 60.5z" />
    <glyph glyph-name="section" unicode="&#xa7;" 
d="M360 113q125 63 125 171q0 43 -11.5 74.5t-34 51t-44.5 30.5t-54 22l-28 9t-28 10q-27 8 -50 24q-51 35 -51 100q0 59 36 94t94 35q126 0 131 -139h33q-9 88 -42.5 128.5t-116.5 40.5q-73 0 -120.5 -40.5t-47.5 -112.5q0 -54 24.5 -89t82.5 -64q-124 -53 -124 -174
q0 -75 40 -112.5t120 -65.5q79 -27 106 -47q46 -35 46 -95q0 -59 -38.5 -93t-98.5 -34q-66 0 -95.5 33.5t-29.5 100.5v6h-33v-3q0 -86 36 -126.5t121 -40.5q76 0 123.5 38.5t47.5 111.5q0 111 -119 156zM310 431q57 0 99.5 -43t42.5 -101q0 -59 -42 -100.5t-100 -41.5
t-100.5 41.5t-42.5 100.5q0 58 42.5 101t100.5 43z" />
    <glyph glyph-name="dieresis" unicode="&#xa8;" horiz-adv-x="421" 
d="M304 594q-14 0 -23.5 11.5t-9.5 28.5t9.5 28.5t23.5 11.5t23.5 -11.5t9.5 -28.5t-9.5 -28.5t-23.5 -11.5zM117 594q-14 0 -23.5 11.5t-9.5 28.5t9.5 28.5t23.5 11.5t23.5 -11.5t9.5 -28.5t-9.5 -28.5t-23.5 -11.5z" />
    <glyph glyph-name="copyright" unicode="&#xa9;" horiz-adv-x="800" 
d="M401 -10q156 0 267.5 114t111.5 274q0 159 -111.5 272.5t-267.5 113.5q-157 0 -269 -113.5t-112 -272.5q0 -160 111.5 -274t269.5 -114zM401 730q144 0 245 -102.5t101 -249.5q0 -148 -101 -251t-245 -103q-145 0 -246.5 103t-101.5 251q0 147 101.5 249.5t246.5 102.5z
M418 161q65 0 113 38t58 100h-34q-8 -48 -48.5 -76t-88.5 -28q-76 0 -125 55.5t-49 131.5q0 78 47 131t125 53q48 0 87.5 -27t51.5 -73h33q-12 63 -59 98.5t-114 35.5q-93 0 -148.5 -61t-55.5 -158q0 -94 57.5 -157t149.5 -63z" />
    <glyph glyph-name="guillemotleft" unicode="&#xab;" horiz-adv-x="397" 
d="M302 154l-137 166l137 166l18 -18l-121 -148l121 -148zM182 154l-137 166l137 166l18 -18l-121 -148l121 -148z" />
    <glyph glyph-name="sfthyphen" unicode="&#xad;" horiz-adv-x="190" 
d="M7 342l1 -45h175v45h-176z" />
    <glyph glyph-name="registered" unicode="&#xae;" horiz-adv-x="800" 
d="M401 -10q156 0 267.5 114t111.5 274q0 159 -111.5 272.5t-267.5 113.5q-157 0 -269 -113.5t-112 -272.5q0 -160 111.5 -274t269.5 -114zM401 730q144 0 245 -102.5t101 -249.5q0 -148 -101 -251t-245 -103q-145 0 -246.5 103t-101.5 251q0 147 101.5 249.5t246.5 102.5z
M576 161l-128 199q69 2 104.5 27.5t35.5 83.5q0 52 -32.5 79t-110.5 27h-178v-416h34v199h110l121 -199h44zM300 544h133q122 0 122 -72q0 -59 -62 -73q-24 -6 -52 -6q-11 -1 -28.5 0t-21.5 1h-91v150z" />
    <glyph glyph-name="degree" unicode="&#xb0;" horiz-adv-x="400" 
d="M200 464q58 0 100.5 44t42.5 106q0 61 -42.5 105.5t-100.5 44.5q-60 0 -101.5 -44t-41.5 -106t42 -106t101 -44zM199 736q49 0 83 -35.5t34 -86.5t-34 -86.5t-82 -35.5q-49 0 -82.5 35.5t-33.5 86.5t33.5 86.5t81.5 35.5z" />
    <glyph glyph-name="plusminus" unicode="&#xb1;" 
d="M327 82v198h232v34h-233v198h-33v-198h-232v-34h233v-198h33zM61 34v-34h498v34h-498z" />
    <glyph glyph-name="twosuperior" unicode="&#xb2;" horiz-adv-x="739" 
d="M429 -7q-155 0 -270.5 114t-115.5 270q0 159 114.5 273t272.5 114q137 0 243 -95v-44q-45 50 -112.5 79.5t-133.5 29.5q-143 0 -247 -108t-104 -253q0 -140 104 -242q49 -49 114.5 -78.5t132.5 -29.5q63 0 132.5 29t113.5 76v-44q-113 -91 -244 -91zM331 -181l-25 13
l85 134l41 -17z" />
    <glyph glyph-name="threesuperior" unicode="&#xb3;" horiz-adv-x="843" 
d="M484 893q-18 0 -62 20q-44 21 -71 21q-32 0 -48 -38l-17 13q28 55 69 55q17 0 67 -19q3 -1 15 -6.5t18 -7.5q18 -7 33 -7q34 0 51 38l17 -14q-8 -24 -28 -39.5t-44 -15.5zM121 670l1 -670h-34v749l633 -678v680h34v-764z" />
    <glyph glyph-name="mu" unicode="&#xb5;" horiz-adv-x="490" 
d="M372 79v-73h30v456h-30v-225q0 -39 -6.5 -74t-21.5 -68t-44.5 -52.5t-70.5 -19.5q-38 0 -63 12.5t-36.5 38t-15 50t-3.5 61.5v277h-30v-732h30v313q48 -48 114 -48q45 0 83.5 22.5t59.5 61.5h4z" />
    <glyph glyph-name="mu" unicode="&#x3bc;" horiz-adv-x="490" 
d="M372 79v-73h30v456h-30v-225q0 -39 -6.5 -74t-21.5 -68t-44.5 -52.5t-70.5 -19.5q-38 0 -63 12.5t-36.5 38t-15 50t-3.5 61.5v277h-30v-732h30v313q48 -48 114 -48q45 0 83.5 22.5t59.5 61.5h4z" />
    <glyph glyph-name="periodcentered" unicode="&#xb7;" horiz-adv-x="310" 
d="M155 215q-14 0 -24 12t-10 29t10 29t24 12t24 -12t10 -29t-10 -29t-24 -12z" />
    <glyph glyph-name="periodcentered" unicode="&#x22c5;" horiz-adv-x="310" 
d="M155 215q-14 0 -24 12t-10 29t10 29t24 12t24 -12t10 -29t-10 -29t-24 -12z" />
    <glyph glyph-name="onesuperior" unicode="&#xb9;" horiz-adv-x="641" 
d="M321 845q-33 0 -56.5 23.5t-23.5 56.5q0 34 23.5 57.5t56.5 23.5t56.5 -23.5t23.5 -57.5q0 -33 -23.5 -56.5t-56.5 -23.5zM592 0l-101 252h-341l-101 -252h-33l305 763l304 -763h-33zM321 981q-23 0 -39 -16.5t-16 -39.5t16 -39t39 -16t39 16t16 39t-16 39.5t-39 16.5z
M321 680l-159 -398h317z" />
    <glyph glyph-name="guillemotright" unicode="&#xbb;" horiz-adv-x="397" 
d="M215 154l-18 18l121 148l-121 148l18 18l137 -166zM95 154l-18 18l121 148l-121 148l18 18l137 -166z" />
    <glyph glyph-name="onehalf" unicode="&#xbd;" horiz-adv-x="930" 
d="M588 20l149 153q27 29 41.5 47t29.5 48t15 57q0 53 -41 90t-99 37q-67 0 -111 -47q-23 -24 -28 -73h19q2 47 35 74t85 27t86.5 -29t34.5 -77q0 -60 -91 -151l-169 -176h277v20h-233zM168 -3l19 -11l440 772l-19 11zM184 734v-422h19v442h-83l-8 -20h72z" />
    <glyph glyph-name="Adieresis" unicode="&#xc4;" horiz-adv-x="641" 
d="M414 900q-14 0 -23.5 9.5t-9.5 23.5t9.5 23.5t23.5 9.5t23.5 -9.5t9.5 -23.5t-9.5 -23.5t-23.5 -9.5zM227 900q-14 0 -23.5 9.5t-9.5 23.5t9.5 23.5t23.5 9.5t23.5 -9.5t9.5 -23.5t-9.5 -23.5t-23.5 -9.5zM592 0l-101 252h-341l-101 -252h-33l305 763l304 -763h-33z
M321 680l-159 -398h317z" />
    <glyph glyph-name="Eacute" unicode="&#xc9;" horiz-adv-x="507" 
d="M208 856l-25 12l93 137l45 -15zM88 0v750h346v-30h-313v-294h305v-30h-305v-366h313v-30h-346z" />
    <glyph glyph-name="Odieresis" unicode="&#xd6;" horiz-adv-x="854" 
d="M521 900q-14 0 -23.5 9.5t-9.5 23.5t9.5 23.5t23.5 9.5t23.5 -9.5t9.5 -23.5t-9.5 -23.5t-23.5 -9.5zM334 900q-14 0 -23.5 9.5t-9.5 23.5t9.5 23.5t23.5 9.5t23.5 -9.5t9.5 -23.5t-9.5 -23.5t-23.5 -9.5zM427 -10q-156 0 -270 113.5t-114 271.5q0 159 113.5 272.5
t270.5 113.5t270.5 -113.5t113.5 -272.5q0 -158 -113.5 -271.5t-270.5 -113.5zM427 730q-144 0 -247.5 -104.5t-103.5 -250.5q0 -144 103.5 -249.5t247.5 -105.5q143 0 247 105.5t104 249.5q0 146 -103.5 250.5t-247.5 104.5z" />
    <glyph glyph-name="Udieresis" unicode="&#xdc;" horiz-adv-x="660" 
d="M424 900q-14 0 -23.5 9.5t-9.5 23.5t9.5 23.5t23.5 9.5t23.5 -9.5t9.5 -23.5t-9.5 -23.5t-23.5 -9.5zM237 900q-14 0 -23.5 9.5t-9.5 23.5t9.5 23.5t23.5 9.5t23.5 -9.5t9.5 -23.5t-9.5 -23.5t-23.5 -9.5zM578 224q-5 -95 -49 -147q-71 -87 -199 -87t-199 87
q-44 52 -49 147q-1 9 -1 28v29v470h34v-456q0 -48 1.5 -74t10.5 -62t28 -61q29 -37 78 -57.5t97 -20.5t97 20.5t78 57.5q19 25 28 61t10.5 62t1.5 74v456h34v-470v-29q0 -19 -1 -28z" />
    <glyph glyph-name="germandbls" unicode="&#xdf;" horiz-adv-x="534" 
d="M239 -5l-1 28q96 16 161.5 86.5t65.5 166.5q0 100 -64 167.5t-163 79.5v28q58 3 93 39.5t35 95.5q0 55 -37 90t-92 35q-72 0 -102 -53q-20 -37 -20 -120v-638h-30v428h-50v27h49v199q0 88 33 129q43 55 127 55q66 0 109 -45t43 -112q0 -46 -23 -82t-66 -51v-14
q85 -23 136.5 -96.5t51.5 -161.5q0 -109 -74.5 -189t-181.5 -92z" />
    <glyph glyph-name="agrave" unicode="&#xe0;" horiz-adv-x="560" 
d="M325 564l-113 134l45 15l93 -138zM453 0v86h-6q-25 -45 -76 -70.5t-104 -25.5q-99 0 -159.5 70t-60.5 174t59.5 171t158.5 67q54 0 103.5 -24.5t78.5 -68.5h6v83h30v-462h-30zM263 444q-80 0 -133 -63.5t-53 -146.5q0 -88 52 -152t137 -64q90 0 140 64t50 157
q0 88 -53.5 146.5t-139.5 58.5z" />
    <glyph glyph-name="acircumflex" unicode="&#xe2;" horiz-adv-x="560" 
d="M380 573l-100 79l-102 -79l-24 20l126 99l126 -99zM453 0v86h-6q-25 -45 -76 -70.5t-104 -25.5q-99 0 -159.5 70t-60.5 174t59.5 171t158.5 67q54 0 103.5 -24.5t78.5 -68.5h6v83h30v-462h-30zM263 444q-80 0 -133 -63.5t-53 -146.5q0 -88 52 -152t137 -64q90 0 140 64
t50 157q0 88 -53.5 146.5t-139.5 58.5z" />
    <glyph glyph-name="adieresis" unicode="&#xe4;" horiz-adv-x="560" 
d="M374 608q-14 0 -23.5 9.5t-9.5 23.5t9.5 23.5t23.5 9.5t23.5 -9.5t9.5 -23.5t-9.5 -23.5t-23.5 -9.5zM187 608q-14 0 -23.5 9.5t-9.5 23.5t9.5 23.5t23.5 9.5t23.5 -9.5t9.5 -23.5t-9.5 -23.5t-23.5 -9.5zM453 0v86h-6q-25 -45 -76 -70.5t-104 -25.5q-99 0 -159.5 70
t-60.5 174t59.5 171t158.5 67q54 0 103.5 -24.5t78.5 -68.5h6v83h30v-462h-30zM263 444q-80 0 -133 -63.5t-53 -146.5q0 -88 52 -152t137 -64q90 0 140 64t50 157q0 88 -53.5 146.5t-139.5 58.5z" />
    <glyph glyph-name="ccedilla" unicode="&#xe7;" horiz-adv-x="477" 
d="M269 -6q-99 0 -164.5 69.5t-65.5 170.5q0 100 66.5 169t164.5 69q90 0 154 -54v-39q-65 65 -156 65q-85 0 -142 -62t-57 -148q0 -85 57 -148.5t141 -63.5q94 0 163 72v-39q-74 -61 -161 -61zM200 -181l-25 13l85 135l41 -17z" />
    <glyph glyph-name="egrave" unicode="&#xe8;" horiz-adv-x="510" 
d="M300 564l-113 134l45 15l93 -138zM70 232q-2 -97 52 -155.5t140 -58.5q108 0 166 104l25 -15q-63 -117 -197 -117q-97 0 -157 69t-60 170q0 99 60.5 168.5t156.5 69.5t154 -67.5t60 -167.5h-400zM257 439q-73 0 -127.5 -52t-60.5 -127h373q-10 76 -61 127.5t-124 51.5z
" />
    <glyph glyph-name="eacute" unicode="&#xe9;" horiz-adv-x="510" 
d="M210 564l-25 11l93 138l45 -15zM70 232q-2 -97 52 -155.5t140 -58.5q108 0 166 104l25 -15q-63 -117 -197 -117q-97 0 -157 69t-60 170q0 99 60.5 168.5t156.5 69.5t154 -67.5t60 -167.5h-400zM257 439q-73 0 -127.5 -52t-60.5 -127h373q-10 76 -61 127.5t-124 51.5z" />
    <glyph glyph-name="ecircumflex" unicode="&#xea;" horiz-adv-x="510" 
d="M355 573l-100 79l-102 -79l-24 20l126 99l126 -99zM70 232q-2 -97 52 -155.5t140 -58.5q108 0 166 104l25 -15q-63 -117 -197 -117q-97 0 -157 69.5t-60 170.5q0 99 60.5 168t156.5 69t154 -67.5t60 -167.5h-400zM257 440q-73 0 -127.5 -52t-60.5 -128h373
q-10 76 -61 128t-124 52z" />
    <glyph glyph-name="edieresis" unicode="&#xeb;" horiz-adv-x="510" 
d="M349 608q-14 0 -23.5 9.5t-9.5 23.5t9.5 23.5t23.5 9.5t23.5 -9.5t9.5 -23.5t-9.5 -23.5t-23.5 -9.5zM162 608q-14 0 -23.5 9.5t-9.5 23.5t9.5 23.5t23.5 9.5t23.5 -9.5t9.5 -23.5t-9.5 -23.5t-23.5 -9.5zM70 232q-2 -97 52 -155.5t140 -58.5q108 0 166 104l25 -15
q-63 -117 -197 -117q-97 0 -157 69.5t-60 170.5q0 99 60.5 168t156.5 69t154 -67t60 -168h-400zM257 440q-73 0 -127.5 -52t-60.5 -128h373q-10 77 -61 128.5t-124 51.5z" />
    <glyph glyph-name="icircumflex" unicode="&#xee;" horiz-adv-x="234" 
d="M217 573l-100 79l-102 -79l-24 20l126 99l126 -99zM101 0v457h31v-457h-31z" />
    <glyph glyph-name="idieresis" unicode="&#xef;" horiz-adv-x="234" 
d="M211 608q-14 0 -23.5 9.5t-9.5 23.5t9.5 23.5t23.5 9.5t23.5 -9.5t9.5 -23.5t-9.5 -23.5t-23.5 -9.5zM24 608q-14 0 -23.5 9.5t-9.5 23.5t9.5 23.5t23.5 9.5t23.5 -9.5t9.5 -23.5t-9.5 -23.5t-23.5 -9.5zM102 0l-1 457h31v-457h-30z" />
    <glyph glyph-name="ocircumflex" unicode="&#xf4;" horiz-adv-x="547" 
d="M374 573l-100 79l-102 -79l-24 20l126 99l126 -99zM272 -10q-96 0 -164.5 70t-68.5 168q0 99 67.5 169t165.5 70q100 0 168 -68.5t68 -169.5q0 -102 -68.5 -170.5t-167.5 -68.5zM269 440q-85 0 -142.5 -63t-57.5 -149t57.5 -148t142.5 -62q88 0 148.5 60.5t60.5 149.5
q0 91 -60 151.5t-149 60.5z" />
    <glyph glyph-name="odieresis" unicode="&#xf6;" horiz-adv-x="547" 
d="M367 608q-14 0 -23.5 9.5t-9.5 23.5t9.5 23.5t23.5 9.5t23.5 -9.5t9.5 -23.5t-9.5 -23.5t-23.5 -9.5zM180 608q-14 0 -23.5 9.5t-9.5 23.5t9.5 23.5t23.5 9.5t23.5 -9.5t9.5 -23.5t-9.5 -23.5t-23.5 -9.5zM272 -10q-96 0 -164.5 70t-68.5 168q0 99 67.5 169t165.5 70
q100 0 168 -68.5t68 -169.5q0 -102 -68.5 -170.5t-167.5 -68.5zM269 440q-85 0 -142.5 -63t-57.5 -149t57.5 -148t142.5 -62q88 0 148.5 60.5t60.5 149.5q0 91 -60 151.5t-149 60.5z" />
    <glyph glyph-name="divide" unicode="&#xf7;" 
d="M310 443q14 0 24 10t10 24q0 15 -10 25t-24 10t-24 -10t-10 -25q0 -14 10 -24t24 -10zM61 273v-34h498v34h-498zM310 0q14 0 24 10t10 25q0 14 -10 24t-24 10t-24 -10t-10 -24q0 -15 10 -25t24 -10z" />
    <glyph glyph-name="ugrave" unicode="&#xf9;" horiz-adv-x="472" 
d="M281 564l-113 134l45 15l93 -138zM392 112q-7 -41 -24 -62q-46 -60 -132 -60t-132 60q-13 18 -19.5 43t-7 40.5t-0.5 47.5v276h30v-259q0 -40 4 -67t16 -55.5t39 -43t70 -14.5q34 0 58.5 10.5t38 26t20.5 41.5t9 48t2 54v259h31v-276q0 -46 -3 -69z" />
    <glyph glyph-name="ucircumflex" unicode="&#xfb;" horiz-adv-x="472" 
d="M336 573l-100 79l-102 -79l-24 20l126 99l126 -99zM392 112q-7 -41 -24 -62q-46 -60 -132 -60t-132 60q-13 18 -19.5 43t-7 40.5t-0.5 48.5v275h30v-259q0 -40 4 -67t16 -55.5t39 -43t70 -14.5q34 0 58.5 10.5t38 26t20.5 41.5t9 48t2 54v259h31v-275q0 -47 -3 -70z" />
    <glyph glyph-name="udieresis" unicode="&#xfc;" horiz-adv-x="472" 
d="M330 608q-14 0 -23.5 9.5t-9.5 23.5t9.5 23.5t23.5 9.5t23.5 -9.5t9.5 -23.5t-9.5 -23.5t-23.5 -9.5zM143 608q-14 0 -23.5 9.5t-9.5 23.5t9.5 23.5t23.5 9.5t23.5 -9.5t9.5 -23.5t-9.5 -23.5t-23.5 -9.5zM392 112q-7 -41 -24 -62q-46 -60 -132 -60t-132 60
q-13 18 -19.5 43.5t-7 41t-0.5 47.5v275h30v-259q0 -40 4 -67t16 -55.5t39 -43t70 -14.5q34 0 58.5 10.5t38 26t20.5 41.5t9 48t2 54v259h31v-275q0 -47 -3 -70z" />
    <glyph glyph-name="oe" unicode="&#x153;" horiz-adv-x="945" 
d="M507 235h398q0 102 -57.5 169.5t-156.5 67.5q-68 0 -120 -38t-79 -113q-32 73 -89.5 112t-125.5 39q-99 0 -168.5 -70t-69.5 -172q0 -101 68.5 -170.5t167.5 -69.5q67 0 124.5 39.5t92.5 112.5q27 -73 81 -112.5t119 -39.5q64 0 115 31t80 88l-25 16q-52 -107 -166 -107
q-83 0 -139 63t-50 154zM692 444q73 0 124 -52.5t61 -129.5h-371q6 77 59.5 129.5t126.5 52.5zM276 444q84 0 142.5 -63.5t58.5 -150.5q0 -89 -60 -150.5t-146 -61.5q-82 0 -142 62.5t-60 146.5q0 91 59 154t148 63z" />
    <glyph glyph-name="tonos" unicode="&#x384;" horiz-adv-x="313" 
d="M111 552l-25 12l93 149l45 -16z" />
    <glyph glyph-name="dieresistonos" unicode="&#x385;" horiz-adv-x="234" 
d="M221 598q-14 0 -23.5 10.5t-9.5 25.5t9.5 25.5t23.5 10.5t23.5 -10.5t9.5 -25.5t-9.5 -25.5t-23.5 -10.5zM75 552l-25 12l93 149l45 -16zM14 598q-14 0 -23.5 10.5t-9.5 25.5t9.5 25.5t23.5 10.5t23.5 -10.5t9.5 -25.5t-9.5 -25.5t-23.5 -10.5z" />
    <glyph glyph-name="Alphatonos" unicode="&#x386;" horiz-adv-x="641" 
d="M64 562l-25 12l93 137l45 -14zM592 0l-101 253h-341l-101 -253h-33l305 766l304 -766h-33zM321 683l-159 -400h317z" />
    <glyph glyph-name="Epsilontonos" unicode="&#x388;" horiz-adv-x="507" 
d="M89 0l-1 754h346v-31h-313v-294h305v-31h-305v-367h313v-31h-345zM-80 563l-24 11l92 138l45 -14z" />
    <glyph glyph-name="Etatonos" unicode="&#x389;" horiz-adv-x="716" 
d="M595 0v397h-473v-397h-34v754h33v-326h473v326h34v-754h-33zM-80 563l-24 11l92 138l45 -14z" />
    <glyph glyph-name="Iotatonos" unicode="&#x38a;" horiz-adv-x="210" 
d="M-80 563l-24 11l92 138l45 -14zM89 0l-1 754h34v-754h-33z" />
    <glyph glyph-name="Omicrontonos" unicode="&#x38c;" horiz-adv-x="854" 
d="M427 -10q157 0 270.5 114t113.5 273t-113.5 273t-270.5 114t-270.5 -114t-113.5 -273q0 -158 114 -272.5t270 -114.5zM-84 574l24 -11l113 134l-45 15zM427 733q143 0 247 -105.5t104 -250.5t-104 -250.5t-247 -105.5q-144 0 -247.5 105t-103.5 251t103.5 251t247.5 105z
" />
    <glyph glyph-name="Upsilontonos" unicode="&#x38e;" horiz-adv-x="559" 
d="M296 323v-323h-33v323l-246 431h36l226 -397l226 397h36zM-118 563l-25 11l93 138l45 -14z" />
    <glyph glyph-name="Omegatonos" unicode="&#x38f;" horiz-adv-x="854" 
d="M-76 574l24 -11l113 134l-44 15zM510 42v-42h302v29h-254q130 50 191.5 144t61.5 217q0 154 -113.5 264t-270.5 110q-158 0 -271 -110t-113 -264q0 -260 246 -361h-246v-29h292v45q-126 45 -192.5 135t-66.5 210q0 141 103.5 243t247.5 102q143 0 247 -102t104 -243
q0 -121 -68 -213.5t-200 -134.5z" />
    <glyph glyph-name="iotadieresistonos" unicode="&#x390;" horiz-adv-x="234" 
d="M221 607q-14 0 -23.5 9.5t-9.5 23.5t9.5 23.5t23.5 9.5t23.5 -9.5t9.5 -23.5t-9.5 -23.5t-23.5 -9.5zM75 563l-25 12l93 138l45 -15zM14 607q-14 0 -23.5 9.5t-9.5 23.5t9.5 23.5t23.5 9.5t23.5 -9.5t9.5 -23.5t-9.5 -23.5t-23.5 -9.5zM102 0l-1 457h31v-457h-30z" />
    <glyph glyph-name="Alpha" unicode="&#x391;" horiz-adv-x="641" 
d="M592 0l-101 253h-341l-101 -253h-33l305 766l304 -766h-33zM321 683l-159 -400h317z" />
    <glyph glyph-name="Beta" unicode="&#x392;" horiz-adv-x="565" 
d="M445 53q-61 -53 -171 -53h-186v754h144q51 0 86.5 -8t64.5 -35q61 -54 61 -153q0 -53 -23 -91.5t-78 -69.5q81 -17 125.5 -67.5t44.5 -122.5q0 -95 -68 -154zM345 698q-39 25 -133 25h-91v-318h91h37q62 0 102 30q34 25 47 55.5t13 74.5q0 89 -66 133zM397 349
q-50 25 -162 25h-114v-343h123q39 0 57.5 1t48.5 8t52 22q78 54 78 143q0 46 -21.5 85t-61.5 59z" />
    <glyph glyph-name="Gamma" unicode="&#x393;" horiz-adv-x="444" 
d="M122 723v-723h-33v754h319v-31h-286z" />
    <glyph glyph-name="Delta" unicode="&#x394;" horiz-adv-x="641" 
d="M16 0l305 766l304 -766h-609zM321 683l-258 -652h516z" />
    <glyph glyph-name="Epsilon" unicode="&#x395;" horiz-adv-x="507" 
d="M88 754l1 -754h345v31h-313v367h305v31h-305v294h313v31h-346z" />
    <glyph glyph-name="Zeta" unicode="&#x396;" horiz-adv-x="568" 
d="M536 31h-454l460 723h-479v-31h423l-460 -723h510v31z" />
    <glyph glyph-name="Eta" unicode="&#x397;" horiz-adv-x="716" 
d="M595 0v397h-473v-397h-34v754h33v-326h473v326h34v-754h-33z" />
    <glyph glyph-name="Theta" unicode="&#x398;" horiz-adv-x="854" 
d="M427 -10q157 0 270.5 114t113.5 273t-113.5 273t-270.5 114t-270.5 -114t-113.5 -273q0 -158 114 -272.5t270 -114.5zM427 733q128 0 226.5 -87t120.5 -219h-694q22 132 120 219t227 87zM77 397h700v-20q0 -145 -103.5 -250.5t-246.5 -105.5q-144 0 -247.5 105
t-103.5 251q0 1 0.5 7t0.5 13z" />
    <glyph glyph-name="Iota" unicode="&#x399;" horiz-adv-x="210" 
d="M89 0l-1 754h34v-754h-33z" />
    <glyph glyph-name="Kappa" unicode="&#x39a;" horiz-adv-x="569" 
d="M514 0l-365 370l-27 -28v-342h-34v754h33v-370l369 370h43l-362 -363l385 -391h-42z" />
    <glyph glyph-name="Lambda" unicode="&#x39b;" horiz-adv-x="641" 
d="M592 0l-103 257l-168 426l-169 -426l-103 -257h-33l305 766l304 -766h-33z" />
    <glyph glyph-name="Mu" unicode="&#x39c;" horiz-adv-x="897" 
d="M848 0l-129 636h-13l-258 -648l-257 648h-13l-129 -636h-31l155 760l275 -693l276 693l155 -760h-31z" />
    <glyph glyph-name="Nu" unicode="&#x39d;" horiz-adv-x="843" 
d="M122 673v-673h-34v752l633 -680v682h34v-767z" />
    <glyph glyph-name="Xi" unicode="&#x39e;" horiz-adv-x="592" 
d="M67 31l1 -31h457v31h-212v367h194v31h-194v294h212v31h-458v-31h213v-294h-195v-31h195v-367h-213z" />
    <glyph glyph-name="Omicron" unicode="&#x39f;" horiz-adv-x="854" 
d="M427 -10q157 0 270.5 114t113.5 273t-113.5 273t-270.5 114t-270.5 -114t-113.5 -273q0 -158 114 -272.5t270 -114.5zM427 733q143 0 247 -105.5t104 -250.5t-104 -250.5t-247 -105.5q-144 0 -247.5 105t-103.5 251t103.5 251t247.5 105z" />
    <glyph glyph-name="Pi" unicode="&#x3a0;" horiz-adv-x="716" 
d="M595 0v723h-473v-723h-34v754h540v-754h-33z" />
    <glyph glyph-name="Rho" unicode="&#x3a1;" horiz-adv-x="472" 
d="M377 412q-53 -47 -163 -47h-92v-365h-34v754h126q54 0 90.5 -8t67.5 -35q66 -59 66 -152q0 -94 -61 -147zM344 691h1q-42 32 -137 32h-87v-327h95q91 0 137 44q52 48 52 121q0 83 -61 130z" />
    <glyph glyph-name="Sigma" unicode="&#x3a3;" horiz-adv-x="568" 
d="M270 416l-245 -416h511v31h-453l224 384l-206 308h422v31h-478z" />
    <glyph glyph-name="Tau" unicode="&#x3a4;" horiz-adv-x="450" 
d="M242 723v-723h-33v723h-196v31h424v-31h-195z" />
    <glyph glyph-name="Upsilon" unicode="&#x3a5;" horiz-adv-x="559" 
d="M296 323v-323h-33v323l-246 431h36l226 -397l226 397h36z" />
    <glyph glyph-name="Phi" unicode="&#x3a6;" horiz-adv-x="854" 
d="M441 0v30q151 8 256 110.5t105 240.5q0 139 -105 240.5t-256 109.5v23h-33v-23q-150 -10 -253 -111t-103 -239t103 -239.5t253 -111.5v-30h33zM441 58v644q136 -8 232.5 -101t96.5 -220t-96.5 -220t-232.5 -103zM408 702v-644q-134 12 -229 104.5t-95 218.5
q0 125 94.5 218t229.5 103z" />
    <glyph glyph-name="Chi" unicode="&#x3a7;" horiz-adv-x="494" 
d="M434 0l-188 356l-186 -356h-35l202 385l-194 369h36l177 -339l177 339h36l-193 -369l203 -385h-35z" />
    <glyph glyph-name="Psi" unicode="&#x3a8;" horiz-adv-x="722" 
d="M639 377q-5 -96 -49 -149q-68 -83 -213 -88v-140h-33v140q-142 5 -212 88q-44 53 -49 149q-1 9 -1 28v28v321h34v-306q0 -48 1.5 -74t10.5 -63t28 -62q55 -73 188 -78v583h33v-583q134 5 189 78q19 25 28 62t10.5 63t1.5 74v306h34v-321v-28q0 -19 -1 -28z" />
    <glyph glyph-name="Omega" unicode="&#x3a9;" horiz-adv-x="854" 
d="M510 42v-42h302v29h-254q130 50 191.5 144t61.5 217q0 154 -113.5 264t-270.5 110q-158 0 -271 -110t-113 -264q0 -260 246 -361h-246v-29h292v45q-126 45 -192.5 135t-66.5 210q0 141 103.5 243t247.5 102q143 0 247 -102t104 -243q0 -121 -68 -213.5t-200 -134.5z" />
    <glyph glyph-name="Iotadieresis" unicode="&#x3aa;" horiz-adv-x="210" 
d="M199 900q-14 0 -23.5 9.5t-9.5 23.5t9.5 23.5t23.5 9.5t23.5 -9.5t9.5 -23.5t-9.5 -23.5t-23.5 -9.5zM12 900q-14 0 -23.5 9.5t-9.5 23.5t9.5 23.5t23.5 9.5t23.5 -9.5t9.5 -23.5t-9.5 -23.5t-23.5 -9.5zM89 0l-1 751h34v-751h-33z" />
    <glyph glyph-name="Upsilondieresis" unicode="&#x3ab;" horiz-adv-x="559" 
d="M373 900q-14 0 -23.5 9.5t-9.5 23.5t9.5 23.5t23.5 9.5t23.5 -9.5t9.5 -23.5t-9.5 -23.5t-23.5 -9.5zM186 900q-14 0 -23.5 9.5t-9.5 23.5t9.5 23.5t23.5 9.5t23.5 -9.5t9.5 -23.5t-9.5 -23.5t-23.5 -9.5zM296 322v-322h-33v322l-246 429h36l226 -396l226 396h36z" />
    <glyph glyph-name="alphatonos" unicode="&#x3ac;" horiz-adv-x="560" 
d="M229 575l25 -11l113 134l-45 15zM453 86v-86h30v462h-30v-83h-6q-29 44 -78.5 68.5t-103.5 24.5q-99 0 -158.5 -67t-59.5 -171t60.5 -174t159.5 -70q53 0 104 25.5t76 70.5h6zM263 444q86 0 139.5 -58.5t53.5 -146.5q0 -93 -50 -157t-140 -64q-85 0 -137 64t-52 152
q0 83 53 146.5t133 63.5z" />
    <glyph glyph-name="epsilontonos" unicode="&#x3ad;" horiz-adv-x="458" 
d="M208 575l25 -11l113 134l-45 15zM253 -13q90 0 160 62v39q-69 -72 -162 -72q-70 0 -113.5 33.5t-43.5 82.5q0 50 28.5 76.5t78.5 26.5h113v32h-66q-140 0 -140 78q0 45 47 70.5t93 25.5q89 0 155 -66v39q-62 55 -153 55q-83 0 -130 -38.5t-47 -85.5q0 -77 85 -91
q-53 -11 -76 -46.5t-23 -71.5q0 -74 58.5 -111.5t135.5 -37.5z" />
    <glyph glyph-name="etatonos" unicode="&#x3ae;" horiz-adv-x="490" 
d="M195 563l-25 12l93 138l45 -15zM376 0v280q0 36 -4.5 62.5t-16.5 51.5t-36.5 38t-61.5 13q-40 0 -69 -20t-44 -53t-22 -69t-7 -75v-228h-31v462h30v-75h5q20 41 58.5 63t83.5 22q78 0 111.5 -48t33.5 -144v-280h-30z" />
    <glyph glyph-name="iotatonos" unicode="&#x3af;" horiz-adv-x="234" 
d="M72 563l-25 12l93 138l45 -15zM102 0l-1 457h31v-457h-30z" />
    <glyph glyph-name="upsilondieresistonos" unicode="&#x3b0;" horiz-adv-x="472" 
d="M339 607q13 0 22.5 9.5t9.5 23.5t-9.5 23.5t-22.5 9.5q-14 0 -23.5 -9.5t-9.5 -23.5t9.5 -23.5t23.5 -9.5zM167 575l25 -11l113 134l-45 15zM132 607q13 0 22.5 9.5t9.5 23.5t-9.5 23.5t-22.5 9.5q-14 0 -23.5 -9.5t-9.5 -23.5t9.5 -23.5t23.5 -9.5zM392 112q3 23 3 69
v276h-31v-259q0 -32 -2 -54t-9 -48t-20.5 -41.5t-38 -26t-58.5 -10.5q-43 0 -70 14.5t-39 43t-16 55.5t-4 67v259h-30v-276q0 -32 0.5 -47.5t7 -40.5t19.5 -43q46 -60 132 -60t132 60q17 21 24 62z" />
    <glyph glyph-name="alpha" unicode="&#x3b1;" horiz-adv-x="560" 
d="M453 86v-86h30v462h-30v-83h-5q-29 44 -79 68.5t-104 24.5q-99 0 -158.5 -67t-59.5 -171q0 -105 60.5 -174.5t160.5 -69.5q51 0 102.5 26t76.5 70h6zM264 444h-1q86 0 139.5 -58.5t53.5 -146.5q0 -93 -50 -157t-140 -64q-85 0 -137 64t-52 152q0 83 53 146.5t134 63.5z
" />
    <glyph glyph-name="beta" unicode="&#x3b2;" horiz-adv-x="534" 
d="M225 -6q106 14 176.5 94t70.5 188q0 73 -38.5 134.5t-110.5 89.5q98 57 98 156q0 75 -52 126t-128 51q-75 0 -127 -52t-52 -125v-633q69 -42 163 -29zM161 480l92 1q87 0 138 -56.5t51 -148.5q0 -101 -64 -173.5t-163 -84.5q-68 -8 -123 23v615q0 62 42.5 106.5
t104.5 44.5q66 0 109.5 -43t43.5 -108q0 -60 -45.5 -104.5t-107.5 -44.5l-78 1v-28z" />
    <glyph glyph-name="gamma" unicode="&#x3b3;" horiz-adv-x="433" 
d="M232 26v-296h-30v298l-186 434h30l172 -401l169 401h30z" />
    <glyph glyph-name="delta" unicode="&#x3b4;" horiz-adv-x="547" 
d="M273 -12q-94 0 -160.5 70.5t-66.5 168.5t58 167.5t161 75.5q-37 19 -79 55q-45 38 -56 91t11 102q22 52 70.5 83.5t122.5 31.5q52 0 92 -18l5 -35q-49 27 -99 27q-116 0 -156 -86q-49 -102 53 -184q27 -21 72 -47t75.5 -46t61.5 -48.5t47.5 -69t17.5 -93.5
q0 -104 -64.5 -174.5t-165.5 -70.5zM270 440q-83 0 -139 -63.5t-56 -149.5q0 -85 56.5 -148t138.5 -63q87 0 145.5 60.5t58.5 150.5q0 84 -59.5 148.5t-144.5 64.5z" />
    <glyph glyph-name="epsilon" unicode="&#x3b5;" horiz-adv-x="458" 
d="M253 -13q90 0 160 62v39q-69 -72 -162 -72q-70 0 -113.5 33.5t-43.5 82.5q0 50 28.5 76.5t78.5 26.5h113v32h-66q-140 0 -140 78q0 45 47 70.5t93 25.5q89 0 155 -66v39q-62 55 -153 55q-83 0 -130 -38.5t-47 -85.5q0 -77 85 -91q-53 -11 -76 -46.5t-23 -71.5
q0 -74 58.5 -111.5t135.5 -37.5z" />
    <glyph glyph-name="zeta" unicode="&#x3b6;" horiz-adv-x="376" 
d="M419 807q-167 -159 -255 -319.5t-63 -286.5q31 -150 258 -166q7 -1 10 -1l23 -1v-184h-28v156q-48 1 -90.5 10t-85.5 28.5t-74 57t-43 89.5q-27 117 52 280.5t246 322.5h-279v30h329v-16z" />
    <glyph glyph-name="eta" unicode="&#x3b7;" horiz-adv-x="490" 
d="M376 0v280q0 36 -4.5 62.5t-16 51.5t-36 38t-61.5 13q-40 0 -69.5 -20t-44.5 -53t-22 -69t-7 -75v-228h-30v462h30v-75h4q20 41 59 63t83 22q78 0 111.5 -48t33.5 -144v-280h-30z" />
    <glyph glyph-name="theta" unicode="&#x3b8;" horiz-adv-x="526" 
d="M262 -6q108 0 166 111t58 299q0 126 -22 218t-73.5 147.5t-128.5 55.5q-105 0 -163.5 -119t-58.5 -304q0 -179 60.5 -293.5t161.5 -114.5zM259 799q63 0 107.5 -50.5t65.5 -127.5t25 -176h-388q6 95 27 172t63 129.5t100 52.5zM69 418h388l1 -16q7 -101 -14 -187.5
t-69.5 -141.5t-115.5 -55q-46 0 -83 33.5t-60 89t-35 123t-12 138.5v16z" />
    <glyph glyph-name="iota" unicode="&#x3b9;" horiz-adv-x="234" 
d="M102 0l-1 462h31v-462h-30z" />
    <glyph glyph-name="kappa" unicode="&#x3ba;" horiz-adv-x="427" 
d="M379 0l-232 242l-32 -35v-207h-31v462h30v-214l201 214h37l-186 -199l251 -263h-38z" />
    <glyph glyph-name="lambda" unicode="&#x3bb;" horiz-adv-x="460" 
d="M419 0l-182 447l-202 -447h-30l218 481l-137 336h29l334 -817h-30z" />
    <glyph glyph-name="nu" unicode="&#x3bd;" horiz-adv-x="433" 
d="M217 -13l-201 475h30l172 -405l169 405h30z" />
    <glyph glyph-name="xi" unicode="&#x3be;" horiz-adv-x="411" 
d="M283 807q50 0 99 -27l-5 35q-40 18 -92 18q-94 0 -149 -58.5t-55 -138.5q0 -54 25 -93.5t93 -71.5q-74 -29 -111.5 -88.5t-37.5 -133.5q0 -118 85.5 -181t213.5 -63v-157h28v184h-29q-39 0 -76 7.5t-72 24t-61.5 40.5t-42.5 61t-16 82q0 91 52.5 149t137.5 58h98v26h-92
q-66 0 -115 47.5t-49 108.5q0 67 47.5 119t123.5 52z" />
    <glyph glyph-name="omicron" unicode="&#x3bf;" horiz-adv-x="547" 
d="M272 -10q99 0 167.5 69.5t68.5 171.5t-68.5 171.5t-167.5 69.5q-98 0 -165.5 -71t-67.5 -171q0 -98 68.5 -169t164.5 -71zM269 444q89 0 149 -61.5t60 -152.5q0 -89 -60.5 -150.5t-148.5 -61.5q-85 0 -142.5 63t-57.5 149q0 87 57.5 150.5t142.5 63.5z" />
    <glyph glyph-name="pi" unicode="&#x3c0;" horiz-adv-x="490" 
d="M376 0v434h-261v-434h-31v462h322v-462h-30z" />
    <glyph glyph-name="rho" unicode="&#x3c1;" horiz-adv-x="560" 
d="M279 -5q-128 0 -182 98h-6v-363h-30v493q0 100 59.5 174.5t153.5 74.5q100 0 161.5 -69.5t61.5 -172.5q0 -104 -59.5 -169.5t-158.5 -65.5zM277 444h1q-48 0 -86 -22.5t-58.5 -57t-31 -71t-10.5 -70.5q0 -86 51.5 -143t135.5 -57q82 0 135 61t53 145q0 88 -52 151.5
t-138 63.5z" />
    <glyph glyph-name="sigma1" unicode="&#x3c2;" horiz-adv-x="375" 
d="M166 -10q62 0 108.5 40.5t46.5 100.5q0 50 -29.5 78t-83.5 50q-6 3 -21 8.5t-22 9.5q-32 15 -39 20q-40 26 -40 65q0 33 25 57.5t56 24.5q63 0 122 -43l-6 39q-53 32 -114 32q-46 0 -79.5 -32.5t-33.5 -80.5q0 -26 10 -46.5t31.5 -35.5t39.5 -23.5t49 -19.5
q105 -38 105 -101q0 -47 -37.5 -81t-84.5 -34q-67 0 -126 40v-34q56 -34 123 -34z" />
    <glyph glyph-name="sigma" unicode="&#x3c3;" horiz-adv-x="577" 
d="M387 434h137v28h-252q-97 0 -165 -70t-68 -167q0 -96 68.5 -165.5t164.5 -69.5q99 0 167.5 68t68.5 168q0 124 -121 208zM269 435q88 0 148.5 -60.5t60.5 -149.5q0 -88 -60.5 -148t-148.5 -60q-83 0 -141.5 62.5t-58.5 145.5q0 86 57.5 148t142.5 62z" />
    <glyph glyph-name="tau" unicode="&#x3c4;" horiz-adv-x="295" 
d="M163 434v-434h-30v434h-102v28h233v-28h-101z" />
    <glyph glyph-name="upsilon" unicode="&#x3c5;" horiz-adv-x="472" 
d="M392 113q-5 -38 -24 -62q-46 -61 -132 -61t-132 61q-13 18 -19.5 43.5t-7 41t-0.5 48.5v278h30v-262q0 -41 4 -68.5t16 -56t39 -43t70 -14.5q34 0 58.5 10.5t38 26.5t20.5 42t9 48t2 55v262h31v-278v-36q0 -18 -3 -35z" />
    <glyph glyph-name="phi" unicode="&#x3c6;" horiz-adv-x="633" 
d="M346 -5l-12 4v-269h-30v265q-106 0 -184 68.5t-78 170.5q0 87 50 150t129 81l6 -27q-70 -18 -112.5 -73t-42.5 -132q0 -90 69 -149t163 -61v449h41q101 0 173 -67.5t72 -170.5t-71.5 -171t-172.5 -68zM334 444v-421q95 0 160.5 58.5t65.5 151.5q0 92 -65.5 151.5
t-160.5 59.5z" />
    <glyph glyph-name="chi" unicode="&#x3c7;" horiz-adv-x="443" 
d="M390 0l-169 224l-168 -224h-34l183 244l-167 218h35l151 -198l152 198h35l-167 -218l183 -244h-34z" />
    <glyph glyph-name="psi" unicode="&#x3c8;" horiz-adv-x="612" 
d="M336 -5h-15v-265h-30v265h-15q-96 0 -147.5 55.5t-51.5 146.5v265h30v-259q0 -75 44.5 -127.5t124.5 -52.5h15v439h30v-439h15q78 0 123 53t45 127v259h31v-265q0 -90 -53.5 -146t-145.5 -56z" />
    <glyph glyph-name="omega" unicode="&#x3c9;" horiz-adv-x="690" 
d="M480 0q82 0 126 66.5t44 160.5q0 88 -48.5 153.5t-127.5 81.5v-28q67 -15 106.5 -73t39.5 -134q0 -44 -13.5 -87.5t-47 -78t-80.5 -34.5q-30 0 -51.5 11.5t-32.5 27.5t-17.5 41.5t-8 46t-1.5 49.5v166h-30v-166q0 -45 -11 -82.5t-40.5 -65.5t-75.5 -28q-51 0 -84.5 35
t-45 77t-11.5 88q0 76 39 133.5t107 73.5v28q-79 -16 -127.5 -81.5t-48.5 -153.5q0 -94 44 -160.5t126 -66.5q96 0 138 94q42 -94 132 -94z" />
    <glyph glyph-name="iotadieresis" unicode="&#x3ca;" horiz-adv-x="234" 
d="M211 608q-14 0 -23.5 9.5t-9.5 23.5t9.5 23.5t23.5 9.5t23.5 -9.5t9.5 -23.5t-9.5 -23.5t-23.5 -9.5zM24 608q-14 0 -23.5 9.5t-9.5 23.5t9.5 23.5t23.5 9.5t23.5 -9.5t9.5 -23.5t-9.5 -23.5t-23.5 -9.5zM102 0l-1 457h31v-457h-30z" />
    <glyph glyph-name="upsilondieresis" unicode="&#x3cb;" horiz-adv-x="472" 
d="M327 608q14 0 23.5 9.5t9.5 23.5t-9.5 23.5t-23.5 9.5t-23.5 -9.5t-9.5 -23.5t9.5 -23.5t23.5 -9.5zM140 608q14 0 23.5 9.5t9.5 23.5t-9.5 23.5t-23.5 9.5t-23.5 -9.5t-9.5 -23.5t9.5 -23.5t23.5 -9.5zM392 112q3 23 3 70v275h-31v-259q0 -32 -2 -54t-9 -48t-20.5 -41.5
t-38 -26t-58.5 -10.5q-43 0 -70 14.5t-39 43t-16 55.5t-4 67v259h-30v-275q0 -32 0.5 -47.5t7 -41t19.5 -43.5q46 -60 132 -60t132 60q17 21 24 62z" />
    <glyph glyph-name="omicrontonos" unicode="&#x3cc;" horiz-adv-x="547" 
d="M228 564l-25 11l93 138l45 -15zM272 -10q-96 0 -164.5 70t-68.5 167q0 100 67.5 170t165.5 70q99 0 167.5 -68.5t68.5 -170.5t-68 -170t-168 -68zM269 439q-85 0 -142.5 -63t-57.5 -149q0 -85 57.5 -147t142.5 -62q88 0 148.5 60.5t60.5 148.5q0 91 -60 151.5t-149 60.5z
" />
    <glyph glyph-name="upsilontonos" unicode="&#x3cd;" horiz-adv-x="472" 
d="M192 575l25 -11l113 134l-45 15zM392 112q3 23 3 69v276h-31v-259q0 -32 -2 -54t-9 -48t-20.5 -41.5t-38 -26t-58.5 -10.5q-43 0 -70 14.5t-39 43t-16 55.5t-4 67v259h-30v-276q0 -32 0.5 -47.5t7 -40.5t19.5 -43q46 -60 132 -60t132 60q17 21 24 62z" />
    <glyph glyph-name="omegatonos" unicode="&#x3ce;" horiz-adv-x="690" 
d="M299 575l24 -12l113 135l-45 15zM480 0q81 0 125.5 67t44.5 160q0 88 -48.5 153.5t-127.5 81.5v-28q67 -15 106.5 -73t39.5 -134q0 -44 -13.5 -87.5t-47 -78t-80.5 -34.5q-30 0 -52 11.5t-33 27.5t-17.5 41.5t-8 46t-1.5 49.5v166h-30v-166q0 -45 -10.5 -82.5t-40 -65.5
t-75.5 -28q-50 0 -84 34.5t-46 77.5t-12 88q0 76 39 133.5t107 73.5v28q-79 -16 -127.5 -81.5t-48.5 -153.5q0 -94 43.5 -160.5t127.5 -66.5q96 0 138 94q42 -94 132 -94z" />
    <glyph glyph-name="endash" unicode="&#x2013;" horiz-adv-x="500" 
d="M8 297l-1 45h486v-45h-485z" />
    <glyph glyph-name="emdash" unicode="&#x2014;" horiz-adv-x="1000" 
d="M7 342l1 -45h985v45h-986z" />
    <glyph glyph-name="afii00208" unicode="&#x2015;" horiz-adv-x="1000" 
d="M8 297l-1 45h986v-45h-985z" />
    <glyph glyph-name="quoteleft" unicode="&#x2018;" horiz-adv-x="259" 
d="M113 526l-30 9l77 227l17 -7z" />
    <glyph glyph-name="quoteright" unicode="&#x2019;" horiz-adv-x="259" 
d="M99 526l-17 7l64 229l30 -9z" />
    <glyph glyph-name="quotedblleft" unicode="&#x201c;" horiz-adv-x="390" 
d="M244 526l-30 9l77 227l17 -7zM113 526l-30 9l77 227l17 -7z" />
    <glyph glyph-name="quotedblright" unicode="&#x201d;" horiz-adv-x="390" 
d="M230 526l-17 7l64 229l30 -9zM99 526l-17 7l64 229l30 -9z" />
    <glyph glyph-name="dagger" unicode="&#x2020;" 
d="M327 521v-699h-33v699h-182v31h181v202h33v-202h182v-31h-181z" />
    <glyph glyph-name="bullet" unicode="&#x2022;" 
d="M311 189q-77 0 -129.5 55t-52.5 133q0 79 52.5 134t129.5 55t129 -55t52 -134q0 -78 -52 -133t-129 -55z" />
    <glyph glyph-name="ellipsis" unicode="&#x2026;" horiz-adv-x="1000" 
d="M833 -7q-14 0 -24 12t-10 29t10 29t24 12t24 -12t10 -29t-10 -29t-24 -12zM500 -7q-14 0 -24 12t-10 29t10 29t24 12t24 -12t10 -29t-10 -29t-24 -12zM167 -7q-14 0 -24 12t-10 29t10 29t24 12t24 -12t10 -29t-10 -29t-24 -12z" />
    <glyph glyph-name="perthousand" unicode="&#x2030;" horiz-adv-x="1034" 
d="M854 -7q61 0 103 40.5t42 101.5q0 63 -42 104t-103 41t-103 -41t-42 -104q0 -61 42 -101.5t103 -40.5zM180 474q61 0 103 40.5t42 102.5t-42 103t-103 41t-103 -41t-42 -103t42 -102.5t103 -40.5zM102 -4l18 -10l441 772l-20 11zM484 -7q61 0 103 40.5t42 101.5
q0 63 -42 104t-103 41t-103 -41t-42 -104q0 -61 42 -101.5t103 -40.5zM854 252q48 0 83 -34t35 -83q0 -47 -35 -80.5t-83 -33.5t-83 33.5t-35 80.5q0 49 35 83t83 34zM180 733q48 0 83 -34t35 -82t-35 -81.5t-83 -33.5t-83 33.5t-35 81.5t35 82t83 34zM484 252q48 0 83 -34
t35 -83q0 -47 -35 -80.5t-83 -33.5t-83 33.5t-35 80.5q0 49 35 83t83 34z" />
    <glyph glyph-name="Euro" unicode="&#x20ac;" horiz-adv-x="739" 
d="M469 -10q133 0 244 92v44q-44 -47 -113.5 -76t-132.5 -29q-67 0 -132.5 29.5t-114.5 78.5q-63 62 -91 154h469l13 30h-489q-6 36 -6 59q0 1 2 33h480l13 31h-489q29 129 124.5 213t220.5 84q66 0 132.5 -29.5t113.5 -78.5v43q-105 96 -243 96q-140 0 -249 -93t-133 -235
h-72l-14 -31h83q-1 -7 -1 -18v-11q0 -29 5 -63h-73l-14 -30h93q36 -128 140 -210.5t234 -82.5z" />
    <glyph glyph-name="trademark" unicode="&#x2122;" horiz-adv-x="940" 
d="M502 726l169 -384l171 384h7v-393h27v421h-50l-153 -339h-4l-151 339h-50v-421h28v393h6zM232 333l-1 393h140v28h-306v-28h140v-393h27z" />
    <glyph glyph-name="FL0020" unicode="&#xe000;" horiz-adv-x="477" 
d="M795 446q89 0 157 -63v37q-65 52 -155 52q-99 0 -165.5 -66t-66.5 -162q0 -36 7.5 -66t18.5 -51.5t32 -40t38.5 -30t49 -24t52.5 -19l59 -17.5q29 -7 50.5 -33t12.5 -60l-27 -99h33l28 105q9 32 -11.5 63.5t-51.5 41.5q-15 5 -46 14.5t-49 15.5t-41.5 16t-40.5 21
q-84 51 -84 163q0 82 57.5 142t142.5 60z" />
    <glyph glyph-name="FL0023" unicode="&#xe001;" horiz-adv-x="372" 
d="M218 306v428h-72l8 20h83v-448h-19z" />
    <glyph glyph-name="FL0025" unicode="&#xe002;" horiz-adv-x="372" 
d="M182 300q58 0 97.5 37.5t39.5 92.5q0 79 -95 113q88 38 88 109q0 46 -35.5 79t-85.5 33q-51 0 -81.5 -26.5t-37.5 -73.5h19q11 80 99 80q43 0 73 -25t30 -66q0 -44 -29 -71.5t-74 -29.5v-20q48 -2 79 -30t31 -74q0 -47 -34.5 -77.5t-84.5 -30.5q-94 0 -108 85h-19
q4 -46 40 -75.5t88 -29.5z" />
    <glyph glyph-name="FL0026" unicode="&#xe003;" horiz-adv-x="372" 
d="M96 326l149 156q27 29 41.5 47t29.5 48t15 58q0 54 -41 91.5t-99 37.5q-67 0 -111 -47q-23 -26 -28 -75h19q2 47 35 74.5t85 27.5t86.5 -29.5t34.5 -77.5q0 -26 -17.5 -57.5t-31.5 -48.5t-42 -47l-169 -178h277v20h-233z" />
    <glyph glyph-name="CR" horiz-adv-x="500" 
 />
    </font>
</defs>
</svg>
