<?xml version="1.0" standalone="no"?>
<!DOCTYPE svg PUBLIC "-//W3C//DTD SVG 1.1//EN" "http://www.w3.org/Graphics/SVG/1.1/DTD/svg11.dtd" >
<svg>
<metadata>
Created by FontForge 20090622 at Mon Feb  4 08:24:02 2019
 By deploy user
 2000 PARACHUTE Type &#38; Image Corp. Designed by Panos Vassiliou. Based on Paul Renner&#200;&#147; Futura 7
</metadata>
<defs>
<font id="PFFuturaNeuSemiBold-Regular" horiz-adv-x="673" >
  <font-face 
    font-family="PF Futura Neu Semi Bold"
    font-weight="400"
    font-stretch="normal"
    units-per-em="1000"
    panose-1="2 0 8 4 4 0 0 2 0 4"
    ascent="760"
    descent="-240"
    x-height="503"
    cap-height="754"
    bbox="-257 -259 1345 1050"
    underline-thickness="75"
    underline-position="-150"
    unicode-range="U+0020-U+E002"
  />
<missing-glyph horiz-adv-x="1000" 
 />
    <glyph glyph-name=".notdef" horiz-adv-x="1000" 
 />
    <glyph glyph-name=".null" horiz-adv-x="0" 
 />
    <glyph glyph-name="nonmarkingreturn" horiz-adv-x="333" 
 />
    <glyph glyph-name="space" unicode=" " horiz-adv-x="337" 
 />
    <glyph glyph-name="exclam" unicode="!" horiz-adv-x="372" 
d="M267 234l-162 -1v521h162v-520zM288 84q0 -42 -29.5 -72t-72.5 -30t-73 30t-30 72t29.5 72t72.5 30t73 -29.5t30 -72.5z" />
    <glyph glyph-name="quotedbl" unicode="&#x22;" horiz-adv-x="456" 
d="M407 754l-24 -313h-98l-25 313h147zM195 754l-23 -313h-99l-24 313h146z" />
    <glyph glyph-name="numbersign" unicode="#" 
d="M607 416h-102l-25 -131h100v-101h-120l-34 -184h-95l34 184h-107l-33 -184h-95l33 183h-97v101h116l24 131h-102v100h120l37 206h96l-38 -206h107l38 206h95l-38 -205h86v-100zM410 416h-109l-24 -132h108z" />
    <glyph glyph-name="dollar" unicode="$" horiz-adv-x="686" 
d="M398 -123v125q104 27 154 84t50 157q0 49 -14.5 84t-46.5 59.5t-62 38.5t-81 32q-9 3 -31 11q-77 33 -77 78q0 35 31 55t67 18q64 -4 125 -50l64 126q-77 47 -179 56v123h-73v-123q-90 -6 -147 -73t-57 -157q0 -42 12 -74t35.5 -53.5t46.5 -34t56 -25.5q94 -35 109 -42
q55 -27 55 -68t-33 -64t-71 -23q-86 0 -178 82l-70 -130q103 -91 242 -91v-121h73z" />
    <glyph glyph-name="percent" unicode="%" horiz-adv-x="954" 
d="M434 596q0 -83 -56 -131t-140 -48q-85 0 -140.5 47t-55.5 131q0 83 56 130t140 47t140 -47t56 -129zM736 758l-441 -758h-87l440 758h88zM907 168q0 -83 -56 -131t-140 -48q-85 0 -140.5 47t-55.5 131q0 83 56 130t140 47t140 -47t56 -129zM327 594q0 38 -25.5 63.5
t-63.5 25.5q-37 0 -63.5 -25.5t-26.5 -63.5q0 -37 26 -62.5t64 -25.5t63.5 26t25.5 62zM801 166q0 37 -26 63t-64 26q-37 0 -63.5 -25.5t-26.5 -63.5q0 -37 26 -62.5t64 -25.5q37 0 63.5 25.5t26.5 62.5z" />
    <glyph glyph-name="ampersand" unicode="&#x26;" horiz-adv-x="807" 
d="M809 0h-207l-71 81q-137 -100 -262 -100q-99 0 -166.5 58t-67.5 154q0 80 45 131.5t126 89.5q1 0 9 4t10 4q0 1 -8 11t-8 12q-18 23 -27.5 37.5t-19 41t-9.5 54.5q0 87 64.5 141t152.5 54t152.5 -53t64.5 -139q0 -63 -37 -105.5t-104 -76.5l113 -131q80 80 98 107l97 -89
l-95 -103l-10 -9zM452 583l1 -1q0 32 -19.5 53.5t-51.5 21.5q-29 0 -49.5 -20t-20.5 -50q0 -14 7 -30.5t13.5 -26t21 -28l18.5 -23.5q80 52 80 103v1zM439 182l-133 154q-11 -8 -24 -16q-75 -51 -75 -102q0 -38 29.5 -62.5t68.5 -24.5q60 0 134 51z" />
    <glyph glyph-name="quotesingle" unicode="'" horiz-adv-x="245" 
d="M196 754l-24 -313h-99l-24 313h147z" />
    <glyph glyph-name="parenleft" unicode="(" horiz-adv-x="330" 
d="M278 -173l-95 -55q-65 95 -98 237.5t-33 277.5q0 129 33.5 266.5t96.5 234.5l96 -55q-106 -191 -106 -454q0 -115 27 -238t79 -214z" />
    <glyph glyph-name="parenright" unicode=")" horiz-adv-x="330" 
d="M278 288q0 -137 -32 -279.5t-99 -236.5l-95 55q51 89 78 212t27 239q0 265 -105 455l95 55q63 -98 97 -234.5t34 -265.5z" />
    <glyph glyph-name="asterisk" unicode="*" horiz-adv-x="511" 
d="M423 629l-98 -52l97 -53l-41 -69l-91 59l4 -105h-82l6 104l-87 -56l-42 69l93 52l-96 52l42 70l90 -57l-5 108h82l-5 -111l91 58z" />
    <glyph glyph-name="plus" unicode="+" 
d="M593 192h-191v-192h-130v191h-192v130h191v192h130v-191h192v-130z" />
    <glyph glyph-name="comma" unicode="," horiz-adv-x="337" 
d="M299 165l-164 -311l-101 2l118 312z" />
    <glyph glyph-name="hyphen" unicode="-" horiz-adv-x="352" 
d="M310 257l-268 -1v130h268v-129z" />
    <glyph glyph-name="period" unicode="." horiz-adv-x="337" 
d="M169 186h-1q43 0 73 -29.5t30 -72.5q0 -42 -29.5 -72t-72.5 -30t-73 30t-30 71q0 43 30 73t73 30z" />
    <glyph glyph-name="slash" unicode="/" horiz-adv-x="592" 
d="M563 826l-412 -929l-123 4l413 928z" />
    <glyph glyph-name="zero" unicode="0" 
d="M648 378q0 -58 -11 -114.5t-36 -109t-60.5 -92.5t-88 -64t-115.5 -24q-79 0 -140.5 36t-98 96t-55 129.5t-18.5 142.5t18.5 142.5t55 128.5t98 95t139.5 36t139.5 -36t98 -95t55.5 -128t19 -143zM336 633h1q-40 0 -70 -27.5t-45.5 -69t-23 -82t-7.5 -75.5
q0 -36 7.5 -76.5t22.5 -83t45.5 -70.5t69.5 -28q40 0 69.5 27t45 69t23 83t7.5 78t-7.5 77.5t-23 82t-45.5 68.5t-69 27z" />
    <glyph glyph-name="one" unicode="1" 
d="M444 0h-167v611h-111v143h278v-754z" />
    <glyph glyph-name="two" unicode="2" 
d="M619 0h-580l303 330q98 102 98 195q0 45 -30.5 79t-74.5 34t-70 -27t-30 -71v-18q0 -5 2 -19h-184q4 108 60 179q84 103 229 98q114 -2 192.5 -73.5t78.5 -184.5q0 -74 -31 -127t-95 -117l-138 -135h270v-143z" />
    <glyph glyph-name="three" unicode="3" 
d="M614 218q0 -113 -81.5 -178.5t-196.5 -65.5q-131 0 -210 80q-34 34 -56.5 82.5t-22.5 95.5h170q8 -50 40 -79t79 -29q48 0 80.5 30.5t32.5 78.5q0 47 -32 80t-76 31l-37 -1v113h22q43 0 69.5 25t26.5 69q0 41 -25.5 66t-65.5 25q-42 0 -66.5 -26.5t-25.5 -69.5h-157
q11 108 82 172q68 63 180 63q101 0 168 -58t67 -157q0 -50 -21.5 -92.5t-63.5 -65.5q57 -17 88.5 -72t31.5 -117z" />
    <glyph glyph-name="four" unicode="4" 
d="M639 154h-94v-154h-155v153h-375v101l322 506h207v-477h95v-129zM389 604h-2l-204 -320q31 0 58 -0.5t33 -0.5h40h76z" />
    <glyph glyph-name="five" unicode="5" horiz-adv-x="676" 
d="M602 241q0 -125 -93 -201q-79 -66 -215 -66q-139 0 -242 79l32 153q90 -90 204 -90q57 0 99 38t42 95q0 68 -53 106.5t-123 38.5q-73 0 -139 -32l73 392h372v-142h-259l-24 -110q85 23 161 -5.5t120.5 -97.5t44.5 -158z" />
    <glyph glyph-name="six" unicode="6" 
d="M647 255q0 -128 -91.5 -204.5t-222.5 -76.5q-130 0 -209 66q-46 39 -72 92.5t-26 111.5q0 130 108 273l178 239l187 -6l-204 -250v-3q54 23 104 23q108 0 178 -78.5t70 -186.5zM473 250q0 59 -40.5 100.5t-99.5 41.5t-101.5 -41.5t-42.5 -100.5t42.5 -101.5t100.5 -42.5
q59 0 100 42t41 102z" />
    <glyph glyph-name="seven" unicode="7" 
d="M676 754l-455 -754h-182l375 611h-344v143h606z" />
    <glyph glyph-name="eight" unicode="8" 
d="M611 198q0 -104 -84 -164t-190 -60t-190.5 60t-84.5 164q0 71 38 121.5t106 75.5v2q-52 19 -84 65.5t-32 105.5q0 99 72.5 155.5t173.5 56.5t174 -56.5t73 -155.5q0 -59 -32 -105.5t-84 -65.5v-1q67 -25 105.5 -76t38.5 -122zM335 662h1q-41 0 -69 -28.5t-28 -69.5
t28 -70t69 -29t69 29.5t28 69.5q0 42 -25 70t-73 28zM443 219q0 45 -31 77t-75 32t-75.5 -32t-31.5 -77q0 -44 31 -75.5t75 -31.5t75.5 31t31.5 76z" />
    <glyph glyph-name="nine" unicode="9" 
d="M647 508q0 -131 -108 -272l-178 -238l-187 6l206 250l-2 3q-53 -24 -105 -24q-107 0 -177 79t-70 187q0 129 91.5 205t221.5 76q131 0 210 -66q45 -37 71.5 -92t26.5 -114zM479 543q-13 45 -51.5 74.5t-86.5 29.5q-60 0 -101 -41.5t-41 -101.5q0 -58 41 -100.5t100 -42.5
q44 0 79.5 24t53.5 63q20 48 6 95z" />
    <glyph glyph-name="colon" unicode=":" horiz-adv-x="337" 
d="M169 536h-1q43 0 73 -30t30 -72t-30 -72.5t-72 -30.5q-43 0 -73 30t-30 72q0 43 30 73t73 30zM271 84q0 -42 -29.5 -72t-72.5 -30t-73 30t-30 72t29.5 72t72.5 30t73 -29.5t30 -72.5z" />
    <glyph glyph-name="semicolon" unicode=";" horiz-adv-x="337" 
d="M207 536h-1q43 0 73 -30t30 -72t-30 -72.5t-72 -30.5q-43 0 -73 30t-30 72q0 43 30 73t73 30zM287 165l-163 -311l-101 2l117 312z" />
    <glyph glyph-name="semicolon" unicode="&#x37e;" horiz-adv-x="337" 
d="M207 536h-1q43 0 73 -30t30 -72t-30 -72.5t-72 -30.5q-43 0 -73 30t-30 72q0 43 30 73t73 30zM287 165l-163 -311l-101 2l117 312z" />
    <glyph glyph-name="less" unicode="&#x3c;" 
d="M584 11l-495 192v107l495 191v-130l-311 -113v-2l311 -115v-130z" />
    <glyph glyph-name="equal" unicode="=" 
d="M593 305l-513 -1v131h513v-130zM593 79h-513v130h513v-130z" />
    <glyph glyph-name="greater" unicode="&#x3e;" 
d="M584 204l-495 -194v130l312 116v1l-312 113v131l495 -190v-107z" />
    <glyph glyph-name="question" unicode="?" horiz-adv-x="569" 
d="M529 540q0 -155 -178 -213v-70h-163v173q35 -5 74 4.5t69 37.5t30 68q0 36 -24.5 62t-60.5 26q-35 0 -55.5 -21.5t-23.5 -56.5h-177q6 103 81 161t180 58q99 0 168 -61q80 -68 80 -168zM373 83v1q0 -42 -29.5 -72t-71.5 -30h-1q-42 0 -71.5 29.5t-29.5 71.5v1
q0 32 18.5 57.5t48.5 37.5q35 12 72 -2q29 -11 46.5 -36.5t17.5 -57.5z" />
    <glyph glyph-name="at" unicode="@" horiz-adv-x="752" 
d="M740 451q0 -126 -65 -212q-35 -45 -76 -67t-79 -20q-22 1 -40 16.5t-25 39.5q-53 -57 -128 -57q-66 0 -114 52.5t-48 126.5q0 99 60 177t152 78q80 0 122 -63l11 52h86l-60 -273q-8 -26 -8 -45q0 -23 23 -22q35 2 73.5 62.5t40.5 126.5q6 122 -74.5 193.5t-199.5 71.5
q-128 0 -212 -89t-84 -222q0 -137 89 -224t220 -87q135 0 198 60l78 -53q-121 -91 -281 -91q-162 0 -275 113.5t-113 281.5q0 167 111 281t270 114q141 0 236 -86q112 -100 112 -235zM464 389q6 41 -15.5 70t-61.5 29q-47 0 -82 -46.5t-35 -97.5q0 -39 22 -67t60 -28
q58 0 86 58q17 25 26 82z" />
    <glyph glyph-name="A" unicode="A" horiz-adv-x="753" 
d="M755 0h-177l-60 155h-282l-61 -155h-178l298 755h166zM471 284l-92 264h-2l-94 -264h188z" />
    <glyph glyph-name="B" unicode="B" horiz-adv-x="655" 
d="M616 210q0 -102 -79 -160q-70 -50 -189 -50h-281v754h257q104 0 160 -42q64 -49 64 -155q0 -108 -86 -154v-1q76 -11 115 -61.5t39 -130.5zM261 625h-27v-176h37q58 0 85 16q38 24 38 72q0 54 -43 75q-27 13 -90 13zM447 225q0 67 -62 88q-12 4 -28.5 6t-27 2.5t-32 1
t-26.5 0.5h-37v-194h42q77 0 112 13q59 25 59 83z" />
    <glyph glyph-name="C" unicode="C" horiz-adv-x="676" 
d="M619 29q-112 -47 -189 -47q-160 0 -281 110q-122 114 -122 284q0 160 112 274q57 58 131.5 90t154.5 32q99 0 194 -50v-202q-33 43 -83.5 67t-104.5 24q-99 0 -164.5 -68.5t-65.5 -167.5q0 -98 65 -163q66 -69 166 -69q53 0 103 23.5t84 64.5v-202z" />
    <glyph glyph-name="D" unicode="D" horiz-adv-x="732" 
d="M704 377q0 -160 -114 -269q-108 -108 -273 -108h-250v754h250q160 0 269 -103q118 -109 118 -274zM528 413q-10 87 -69 140q-65 59 -171 59h-54v-470h52q98 0 163.5 50.5t77.5 143.5q6 35 1 77z" />
    <glyph glyph-name="E" unicode="E" horiz-adv-x="542" 
d="M483 0h-416v754h416v-142h-249v-155h238v-142h-238v-172h249v-143z" />
    <glyph glyph-name="F" unicode="F" horiz-adv-x="523" 
d="M475 612h-241v-155h222v-142h-222v-315h-167v754h408v-142z" />
    <glyph glyph-name="G" unicode="G" horiz-adv-x="839" 
d="M811 410h-1q0 -93 -15 -161t-61 -128q-107 -143 -307 -143q-174 0 -287 111t-113 284q0 165 98.5 274.5t257.5 125.5q61 6 114 -1q185 -26 275 -200l-157 -69q-27 60 -76 94.5t-113 34.5q-100 0 -162.5 -78.5t-62.5 -180.5q0 -103 63 -180t164 -77q80 0 133 44
q51 42 57 117h-183v133h376z" />
    <glyph glyph-name="H" unicode="H" horiz-adv-x="786" 
d="M719 0h-167v325h-318v-325h-167v754h167v-297h317v297h168v-754z" />
    <glyph glyph-name="I" unicode="I" horiz-adv-x="302" 
d="M234 0h-167v754h167v-754z" />
    <glyph glyph-name="J" unicode="J" horiz-adv-x="435" 
d="M371 199q0 -115 -57 -181t-170 -66q-112 0 -181 105l98 102q44 -65 82 -65q22 0 35.5 10.5t18.5 31t6 34.5t1 38v546h167v-555z" />
    <glyph glyph-name="K" unicode="K" horiz-adv-x="721" 
d="M731 0h-217l-274 334l-6 -4v-330h-167v754h167v-319h2l260 319h209l-315 -358z" />
    <glyph glyph-name="L" unicode="L" horiz-adv-x="462" 
d="M461 0h-394v754h167v-611h227v-143z" />
    <glyph glyph-name="M" unicode="M" horiz-adv-x="966" 
d="M949 0h-166l-72 469h-2l-198 -477q-59 0 -73 35l-36 87l-46 115l-44.5 112.5l-38 93.5t-13.5 34h-2l-75 -469h-167l138 758h149l181 -458l186 460h151z" />
    <glyph glyph-name="N" unicode="N" horiz-adv-x="874" 
d="M807 -5h-152l-419 503l-2 1v-499h-167v760h153q-1 1 101.5 -123.5l207.5 -251.5t109 -131l1 1v499h168v-759z" />
    <glyph glyph-name="O" unicode="O" horiz-adv-x="881" 
d="M852 389q0 -177 -117.5 -294t-294.5 -117q-178 0 -295.5 116t-117.5 294q0 165 123 276.5t289 111.5q167 0 290 -111.5t123 -275.5zM678 387h1q0 91 -70.5 159.5t-168.5 68.5q-97 0 -168 -68t-71 -159q0 -105 69.5 -177t168.5 -72t169 71.5t70 176.5z" />
    <glyph glyph-name="P" unicode="P" horiz-adv-x="624" 
d="M600 516q0 -121 -64 -182q-66 -62 -196 -62h-106v-272h-167v754h267q120 0 193 -59.5t73 -178.5zM381 602q-32 17 -105 17h-42v-212h43q79 0 108 19q39 24 41 87q5 62 -45 89z" />
    <glyph glyph-name="Q" unicode="Q" horiz-adv-x="881" 
d="M440 776q175 0 293.5 -112.5t118.5 -288.5q0 -145 -102 -265l110 -115l-136 -44l-72 83q-86 -56 -212 -56q-177 0 -294.5 116t-117.5 293q0 165 123 277t289 112zM674 420q-16 83 -81.5 139t-151.5 56q-98 0 -169 -68.5t-71 -159.5q0 -104 70 -176t169 -72q50 0 89 21
l-119 121l140 44l80 -87q24 28 35 61q21 63 9 121z" />
    <glyph glyph-name="R" unicode="R" horiz-adv-x="642" 
d="M644 0h-206l-198 304h-6v-304h-167v754h253q117 0 182 -50q78 -60 78 -175q0 -84 -46 -141t-129 -69zM401 557q-12 36 -52 54q-33 14 -93 14h-22v-212h27q67 0 102 21q27 16 38 48q12 40 0 75z" />
    <glyph glyph-name="S" unicode="S" horiz-adv-x="602" 
d="M570 245q0 -128 -76 -193q-80 -70 -205 -70q-148 0 -257 101l76 131q83 -90 175 -90q45 0 79.5 26.5t34.5 69.5q0 18 -9.5 33t-20.5 24.5t-32 19t-31.5 13t-31.5 9.5q-51 16 -83 30.5t-63.5 38t-46 59t-14.5 84.5q0 107 69 174t178 67q58 0 119.5 -19t106.5 -52l-69 -128
q-61 59 -135 59q-36 0 -66 -22t-30 -57q0 -8 1.5 -15.5t6.5 -14.5t8 -12t11.5 -10.5t12 -8t15 -7.5t14 -6.5t15 -6.5t13.5 -5l69 -27q82 -33 124 -75.5t42 -119.5z" />
    <glyph glyph-name="T" unicode="T" horiz-adv-x="517" 
d="M510 612h-168v-612h-167v611h-170v143h505v-142z" />
    <glyph glyph-name="U" unicode="U" horiz-adv-x="755" 
d="M692 306q0 -81 -14 -137.5t-59 -101.5q-85 -85 -241 -85q-157 0 -242 84q-47 48 -60.5 107.5t-13.5 146.5v434h167v-408q0 -105 25 -152q35 -65 123 -65q87 0 124 65q24 45 24 151v409h166v-304l1 -11v-28.5v-33.5v-48v-23z" />
    <glyph glyph-name="V" unicode="V" horiz-adv-x="720" 
d="M732 754l-314 -760h-117l-313 760h181l191 -494h1l189 494h182z" />
    <glyph glyph-name="W" unicode="W" horiz-adv-x="1115" 
d="M1125 754l-245 -761h-154l-168 490h-2l-178 -490h-153l-235 761h173l147 -511h2l138 383l46 139h124l174 -522h2l155 511h174z" />
    <glyph glyph-name="X" unicode="X" horiz-adv-x="730" 
d="M734 0h-200l-163 265l-174 -265h-202l278 399l-233 355h204l126 -221l127 221h205l-233 -354z" />
    <glyph glyph-name="Y" unicode="Y" horiz-adv-x="683" 
d="M698 754l-273 -400v-354h-167v354l-273 400h199l157 -240l157 240h200z" />
    <glyph glyph-name="Z" unicode="Z" horiz-adv-x="680" 
d="M669 754l-377 -611h343v-143h-625l379 611h-321v143h601z" />
    <glyph glyph-name="bracketleft" unicode="[" horiz-adv-x="340" 
d="M286 -233h-232v1016h232v-95h-111v-825h111v-96z" />
    <glyph glyph-name="backslash" unicode="\" horiz-adv-x="592" 
d="M563 4l-121 -4l-414 825l123 4z" />
    <glyph glyph-name="bracketright" unicode="]" horiz-adv-x="340" 
d="M286 -233h-232v95h111v825h-111v96h232v-1016z" />
    <glyph glyph-name="asciicircum" unicode="^" 
d="M580 386l-101 -54l-142 297l-143 -297l-102 53l191 393h106z" />
    <glyph glyph-name="underscore" unicode="_" horiz-adv-x="500" 
d="M501 -188h-502v75h502v-75z" />
    <glyph glyph-name="grave" unicode="`" horiz-adv-x="385" 
d="M310 632l-73 -51l-163 150l102 68z" />
    <glyph glyph-name="a" unicode="a" horiz-adv-x="658" 
d="M596 0h-156v62h-1q-24 -38 -67.5 -58t-92.5 -20q-110 0 -181.5 78.5t-71.5 189.5t70.5 189t180.5 78q104 0 163 -72v56h156v-503zM315 384q-58 0 -93.5 -39t-35.5 -93q0 -56 35.5 -94.5t93.5 -38.5q60 0 95.5 38t35.5 95q0 56 -35.5 94t-95.5 38z" />
    <glyph glyph-name="b" unicode="b" horiz-adv-x="658" 
d="M628 253q0 -112 -71.5 -190.5t-181.5 -78.5t-160 79h-1v-63h-156v829h155v-382q59 72 163 72q110 0 181 -77.5t71 -188.5zM337 119q60 0 95.5 38t35.5 94q0 55 -35.5 94t-93.5 39q-60 0 -95.5 -38t-35.5 -94q0 -57 35 -95t94 -38z" />
    <glyph glyph-name="c" unicode="c" horiz-adv-x="482" 
d="M432 21q-64 -37 -136 -37q-113 0 -192.5 75.5t-79.5 187.5q0 119 80 195.5t198 76.5q70 0 129 -36v-136q-52 45 -108 45q-58 0 -98.5 -41t-40.5 -99q0 -60 40 -100.5t100 -40.5q62 0 108 46v-136z" />
    <glyph glyph-name="d" unicode="d" horiz-adv-x="658" 
d="M600 0h-155v63h-2q-24 -38 -67.5 -58.5t-91.5 -20.5q-110 0 -182 78.5t-72 189.5t70.5 189t180.5 78q47 0 91 -18.5t72 -53.5v382h156v-829zM286 380q-44 -11 -70 -46.5t-26 -81.5q0 -56 35.5 -94.5t93.5 -38.5q60 0 95.5 38t35.5 95q0 46 -24 80t-66 46q-35 11 -74 2z
" />
    <glyph glyph-name="e" unicode="e" horiz-adv-x="590" 
d="M566 226h-387q-1 -62 32.5 -96t94.5 -34q70 0 102 55h149q-23 -81 -92 -124t-158 -43q-126 0 -205 71.5t-79 195.5q0 121 75.5 194.5t197.5 73.5q125 0 195.5 -74t74.5 -201v-18zM304 416q-48 0 -81.5 -26t-41.5 -71h239q-8 45 -39.5 71t-76.5 26z" />
    <glyph glyph-name="f" unicode="f" horiz-adv-x="359" 
d="M358 375h-125v-375h-155v374h-62v129h61v93q0 56 8.5 93.5t36.5 72.5q63 78 164 78q40 0 72 -16v-135q-40 16 -59 16q-38 0 -52.5 -24t-14.5 -72v-106h126v-128z" />
    <glyph glyph-name="g" unicode="g" horiz-adv-x="655" 
d="M597 45q0 -145 -64 -219q-70 -84 -220 -84q-100 0 -184.5 52t-95.5 146h173q6 -35 38 -54q29 -19 66 -19q71 0 104 45q28 39 28 121v8v4v5q-1 6 -1 13q-72 -74 -166 -74q-109 0 -178.5 74.5t-69.5 184.5q0 112 72.5 191.5t184.5 79.5q100 0 156 -76h1v60h156v-458z
M316 387h1q-58 0 -94 -39t-36 -93q0 -57 35 -95t95 -38t95 38t35 95q0 56 -35.5 94t-95.5 38z" />
    <glyph glyph-name="h" unicode="h" horiz-adv-x="627" 
d="M564 0h-155v266q0 28 -2.5 47.5t-11 39.5t-27 30.5t-47.5 10.5q-55 0 -78.5 -39.5t-23.5 -98.5v-256h-156v829h156v-393q59 83 159 83q93 0 139.5 -56.5t46.5 -155.5v-307z" />
    <glyph glyph-name="i" unicode="i" horiz-adv-x="289" 
d="M235 691q0 -37 -26.5 -63.5t-63.5 -26.5q-38 0 -64.5 26t-26.5 64q0 37 26 63.5t64 26.5q37 0 64 -26t27 -64zM221 0h-155v503h155v-503z" />
    <glyph glyph-name="j" unicode="j" horiz-adv-x="289" 
d="M235 691q0 -37 -26.5 -63.5t-63.5 -26.5q-38 0 -64.5 26t-26.5 64q0 37 26 63.5t64 26.5q37 0 64 -26t27 -64zM221 -259h-155v762h155v-762z" />
    <glyph glyph-name="k" unicode="k" horiz-adv-x="636" 
d="M645 0h-217l-205 214l-4 -3v-211h-156v829h155v-513l189 187h212l-245 -229z" />
    <glyph glyph-name="l" unicode="l" horiz-adv-x="282" 
d="M219 0h-156v829h156v-829z" />
    <glyph glyph-name="m" unicode="m" horiz-adv-x="937" 
d="M874 0h-155v255q0 31 -1.5 47t-8 41.5t-24 38t-45.5 12.5q-31 0 -51 -12.5t-29 -36.5t-11.5 -45t-2.5 -50v-250h-155v253q0 30 -2 49t-9 44t-26 38t-48 13q-30 0 -49 -14t-26.5 -40t-9.5 -46t-2 -50v-247h-156v503h156v-63q56 79 153 79q116 0 166 -96q26 46 70.5 71
t96.5 25q169 0 169 -199v-320z" />
    <glyph glyph-name="n" unicode="n" horiz-adv-x="627" 
d="M564 0h-156v255v8q0 23 -0.5 36t-5 33.5t-13 32t-26 20.5t-42.5 9q-102 0 -102 -135v-259h-156v503h156v-68q56 84 159 84q186 0 186 -209v-310z" />
    <glyph glyph-name="o" unicode="o" horiz-adv-x="639" 
d="M616 251q0 -120 -86 -193.5t-210 -73.5q-123 0 -210 73t-87 193q0 121 86 195t210 74t210.5 -73t86.5 -195zM450 280q-9 46 -44 75t-87 29q-60 0 -96.5 -38.5t-36.5 -94.5t36.5 -94t95.5 -38q52 0 86.5 27.5t44.5 72.5q3 13 3 30q0 13 -2 31z" />
    <glyph glyph-name="p" unicode="p" horiz-adv-x="658" 
d="M628 250q0 -112 -71 -189t-180 -77q-105 0 -163 71v-314h-156v762h155v-64h2q24 39 67 59.5t92 20.5q111 0 182.5 -79t71.5 -190zM467 250h1q0 56 -35.5 95t-94.5 39t-94.5 -39.5t-35.5 -95.5t35.5 -93t94.5 -37t94 37.5t35 93.5z" />
    <glyph glyph-name="q" unicode="q" horiz-adv-x="658" 
d="M600 -259h-155v314q-59 -71 -163 -71q-112 0 -182 77t-70 188t72 190.5t181 79.5q49 0 92.5 -20.5t66.5 -59.5h2v64h156v-762zM450 250q0 56 -35.5 95t-94.5 39t-94.5 -39.5t-35.5 -95.5t35.5 -93t94.5 -37t94.5 37.5t35.5 93.5z" />
    <glyph glyph-name="r" unicode="r" horiz-adv-x="418" 
d="M411 358q-35 21 -74 16q-60 -2 -89.5 -47.5t-29.5 -112.5v-214h-156v503h156v-77h1q49 85 151 85h41v-153z" />
    <glyph glyph-name="s" unicode="s" horiz-adv-x="486" 
d="M448 166q0 -88 -66 -135t-158 -47q-114 0 -198 72l62 105q26 -25 64.5 -43t73.5 -18q25 0 46 14t21 38q0 7 -1.5 12.5t-5.5 10t-7.5 8t-11 7t-12.5 5.5t-14.5 4.5l-15 4l-16.5 4.5t-17 4q-3 1 -31 11q-44 17 -70 45.5t-26 80.5q0 83 60.5 126.5t145.5 43.5q88 0 160 -42
l-57 -98q-45 32 -95 32q-21 0 -41.5 -11.5t-20.5 -30.5q0 -11 5 -18.5t15.5 -13t18 -8.5t22 -6.5t17.5 -4.5q75 -21 105 -45q48 -38 48 -107z" />
    <glyph glyph-name="t" unicode="t" horiz-adv-x="330" 
d="M332 374h-99v-374h-155v374h-58v129h57v156h155v-156h100v-129z" />
    <glyph glyph-name="u" unicode="u" horiz-adv-x="622" 
d="M563 201q0 -108 -62 -161q-66 -56 -189 -56q-125 0 -191 56q-62 53 -62 160v303h155v-271q0 -60 20 -91.5t77 -31.5t77 31t20 91v272h155v-302z" />
    <glyph glyph-name="v" unicode="v" horiz-adv-x="585" 
d="M597 503l-260 -513q-88 0 -104 31l-42 81l-56 108l-57 112l-57.5 114.5l-32.5 66.5h173l132 -286l130 286h174z" />
    <glyph glyph-name="w" unicode="w" horiz-adv-x="948" 
d="M959 503l-258 -512h-88l-139 308l-136 -308h-88l-262 512h172l134 -298l138 309h81l140 -309l135 298h171z" />
    <glyph glyph-name="x" unicode="x" horiz-adv-x="659" 
d="M670 0h-202l-139 164l-138 -164h-203l243 271l-201 232h196l103 -122l103 122h200l-205 -231z" />
    <glyph glyph-name="y" unicode="y" horiz-adv-x="616" 
d="M631 503l-391 -762h-174l163 313l-243 449h178l149 -294l142 294h176z" />
    <glyph glyph-name="z" unicode="z" horiz-adv-x="544" 
d="M538 503l-269 -373h249v-130h-512l269 373h-231v130h494z" />
    <glyph glyph-name="braceleft" unicode="{" horiz-adv-x="342" 
d="M305 -233h-70q-39 4 -50 10q-32 13 -54.5 50.5t-22.5 93.5v237q0 20 -4 33.5t-14 20.5t-16.5 10t-20.5 6t-17 4v92q2 1 16.5 4.5t20.5 6.5t16 9.5t14 18t4 27.5v237q0 65 30 104t65 46q4 6 26 6h7h70v-105h-18q-11 0 -17 -2q-41 -5 -41 -61v-218q0 -31 -8.5 -53
t-25.5 -35t-28 -18t-30 -11v-2q17 -5 23 -7t22.5 -11.5t24 -21.5t14.5 -35t7 -53v-214q0 -64 47 -64h30v-105z" />
    <glyph glyph-name="bar" unicode="|" horiz-adv-x="528" 
d="M329 0h-130v829h130v-829z" />
    <glyph glyph-name="braceright" unicode="}" horiz-adv-x="342" 
d="M305 233q-3 -1 -16.5 -4t-19.5 -6t-15.5 -10.5t-14 -21t-4.5 -32.5v-238q0 -54 -30.5 -103.5t-82.5 -49.5q-1 -1 -14 -1h-29h-28h-15v105q44 0 60.5 10.5t16.5 52.5v215q0 37 8.5 62t25 38t28.5 18t30 9v2q-18 6 -30 11.5t-28.5 18t-25 35t-8.5 53.5v217q0 57 -42 62
q-2 1 -35 1v107h15h28h12h11.5t9.5 -0.5t7 -0.5h3q52 0 82 -50t30 -105v-238q0 -16 4.5 -27.5t14 -18t16 -9.5t20 -6t16.5 -4v-92z" />
    <glyph glyph-name="asciitilde" unicode="~" 
d="M624 280q-17 -28 -31 -48.5t-36 -46t-48.5 -39t-54.5 -13.5q-11 0 -23 2.5t-20.5 4.5t-22 8.5t-18 9t-19.5 11.5t-17 10l-58 34q-33 20 -54 20q-35 0 -72 -82l-101 81q5 6 30.5 41.5t40.5 52.5t43.5 35t56.5 18q51 0 126 -52q30 -21 57 -34q33 -14 50 -14q34 0 69 83z
" />
    <glyph glyph-name="nbspace" unicode="&#xa0;" horiz-adv-x="337" 
 />
    <glyph glyph-name="sterling" unicode="&#xa3;" 
d="M650 166q-9 -79 -55.5 -130t-123.5 -51q-37 0 -134 28q-88 27 -121 27q-23 0 -43.5 -11t-29.5 -31l-110 8q17 58 64 104t101 65q32 54 -2 113h-154v70h109q-32 53 -42 110q-12 54 -9 88q11 84 71 141q75 71 198 71q135 0 197.5 -66t63.5 -203h-132q-10 57 -37.5 89.5
t-82.5 40.5q-50 8 -85.5 -24.5t-35.5 -83.5q0 -31 14 -68q11 -30 46 -94h153v-70h-140q10 -31 7 -70.5t-18 -68.5l11 -4q56 -21 111 -29q39 -6 52 -3q39 6 46 52h111z" />
    <glyph glyph-name="yen" unicode="&#xa5;" 
d="M675 754l-161 -247h101v-71h-146l-54 -81h200v-71h-200v-284h-157v284h-201v70h200l-54 82h-146v70h101l-161 248h190l149 -239l149 239h190z" />
    <glyph glyph-name="brokenbar" unicode="&#xa6;" horiz-adv-x="639" 
d="M509 750q-7 -56 -38 -98.5t-83 -42.5q-20 0 -73 19q-60 20 -75 20q-16 0 -22.5 -8.5t-12.5 -26.5q-1 -3 -1 -4h-66l-7 14q2 45 23 79q13 22 35 36t46 14q27 0 85 -18q26 -8 38 -11q20 -6 34 -6q18 0 26.5 9t15.5 28zM616 251q0 -120 -86 -193.5t-210 -73.5t-210.5 72.5
t-86.5 194.5q0 121 86 194.5t210 73.5t210.5 -73t86.5 -195zM452 251h1q0 56 -37 94.5t-97 38.5q-59 0 -96 -38.5t-37 -94.5t36.5 -94t95.5 -38q60 0 97 37.5t37 94.5z" />
    <glyph glyph-name="section" unicode="&#xa7;" 
d="M603 275q0 -93 -90 -159q62 -45 62 -135q0 -97 -71.5 -150.5t-172.5 -53.5q-70 0 -128 24.5t-94 76.5t-34 123h157q-1 -44 28.5 -72.5t72.5 -28.5q38 0 63 20.5t25 56.5q0 8 -1 15.5t-5 14t-7.5 11.5t-10.5 10.5l-11 8.5t-12.5 7.5t-11 6t-10.5 5.5l-9 4q-30 17 -79 38
l-95 47q-99 52 -99 154q0 97 92 165q-55 43 -55 123q0 87 64 136t153 49q97 0 157.5 -45.5t66.5 -139.5h-135q-12 76 -82 76q-30 0 -50 -17.5t-20 -46.5q0 -15 4.5 -27.5t18 -23l19.5 -15t27.5 -15l23.5 -11.5l172 -89q77 -51 77 -143zM471 250q0 41 -63 74q-3 5 -75 42
t-78 37q-23 -6 -37.5 -25.5t-14.5 -43.5q0 -44 65 -75q5 -5 77 -41.5t78 -36.5q20 7 34 26.5t14 42.5z" />
    <glyph glyph-name="dieresis" unicode="&#xa8;" horiz-adv-x="568" 
d="M492 689q0 -37 -25.5 -62t-61.5 -25t-62 25t-26 61t25.5 61.5t61.5 25.5t62 -25.5t26 -60.5zM249 689h1q0 -37 -25.5 -62t-61.5 -25q-37 0 -62.5 25t-25.5 61t25.5 61.5t61.5 25.5t61.5 -25.5t25.5 -60.5z" />
    <glyph glyph-name="copyright" unicode="&#xa9;" horiz-adv-x="800" 
d="M795 377q0 -164 -115 -279.5t-279 -115.5q-165 0 -280.5 115t-115.5 279q0 165 115 280.5t280 115.5q164 0 279.5 -115.5t115.5 -279.5zM709 377l1 -1q0 134 -89 222.5t-220 88.5q-133 0 -222 -88t-89 -222t88.5 -222t221.5 -88q131 0 220 88t89 221v1zM601 307h1
q-8 -70 -60.5 -112t-123.5 -42q-98 0 -159 65t-61 162q0 101 58.5 164.5t158.5 63.5q73 0 123.5 -39.5t63.5 -110.5h-82q-7 37 -36 58t-69 21q-61 0 -96.5 -45t-35.5 -110q0 -62 37.5 -110t96.5 -48q39 0 69.5 22.5t32.5 59.5h32h17q3 0 12.5 0.5t20.5 0.5z" />
    <glyph glyph-name="guillemotleft" unicode="&#xab;" horiz-adv-x="562" 
d="M507 153l-89 -64l-168 231l167 231l87 -61l-126 -170q125 -163 129 -167zM283 153l-88 -64l-168 231l167 231l87 -61l-126 -170z" />
    <glyph glyph-name="sfthyphen" unicode="&#xad;" horiz-adv-x="352" 
d="M42 256l268 1v129h-268v-130z" />
    <glyph glyph-name="registered" unicode="&#xae;" horiz-adv-x="800" 
d="M795 377q0 -164 -115 -279.5t-279 -115.5q-165 0 -280.5 115t-115.5 279q0 165 115 280.5t280 115.5q164 0 279.5 -115.5t115.5 -279.5zM400 687h1q-133 0 -222 -88t-89 -222t88.5 -222t221.5 -88q131 0 220 88t89 221t-87.5 222t-221.5 89zM601 462v1q0 -57 -29 -83.5
t-88 -29.5l107 -179h-93l-98 179h-71v-179h-84v415h197q81 0 119.5 -26t38.5 -97q1 0 1 -1zM522 463q0 56 -97 56h-96v-109h104q34 0 49.5 2t27.5 14t12 37z" />
    <glyph glyph-name="degree" unicode="&#xb0;" horiz-adv-x="400" 
d="M351 622q0 -62 -44.5 -106t-106.5 -44t-106.5 44t-44.5 105q0 63 43.5 107t106.5 44q62 0 107 -44.5t45 -105.5zM273 622h1q0 30 -21.5 52t-53.5 22q-29 0 -50.5 -22.5t-21.5 -51.5q1 -31 22 -52.5t51 -21.5t51.5 21.5t21.5 52.5z" />
    <glyph glyph-name="plusminus" unicode="&#xb1;" 
d="M593 344h-191v-152h-130v151h-192v130h191v153h130v-152h192v-130zM593 0h-513v130h513v-130z" />
    <glyph glyph-name="twosuperior" unicode="&#xb2;" horiz-adv-x="676" 
d="M619 29q-112 -47 -189 -47q-158 0 -281 110q-122 114 -122 284q0 160 112 274q57 58 131.5 90t154.5 32q99 0 194 -50v-202q-33 43 -83.5 67t-104.5 24q-99 0 -164.5 -68.5t-65.5 -167.5t64 -163q66 -69 167 -69q52 0 103 23.5t84 64.5v-202zM444 -84l-143 -143l-71 44
l123 156z" />
    <glyph glyph-name="threesuperior" unicode="&#xb3;" horiz-adv-x="874" 
d="M626 1001q-7 -56 -38 -98t-83 -42q-23 0 -73 18q-60 20 -75 20q-16 0 -22.5 -8.5t-12.5 -26.5q-1 -3 -1 -4l-71 4l-2 10q2 45 23 79q31 51 81 51q25 0 84 -19q17 -5 40 -11q20 -6 33 -6q29 0 42 38zM807 -5h-152l-419 503l-2 1v-499h-167v760h153q-1 1 101.5 -123.5
l207.5 -251.5t109 -131l1 1v499h168v-759z" />
    <glyph glyph-name="mu" unicode="&#xb5;" horiz-adv-x="627" 
d="M554 0l-155 -1v68h-1q-54 -83 -159 -83q-19 0 -29 7v-250h-156v110v130q0 46 -0.5 141t-0.5 140v131v110h156v-256v-8q0 -23 0.5 -35.5t5 -33.5t13 -32t26 -20t42.5 -9q103 0 103 135v259h155v-503z" />
    <glyph glyph-name="mu" unicode="&#x3bc;" horiz-adv-x="627" 
d="M554 0l-155 -1v68h-1q-54 -83 -159 -83q-19 0 -29 7v-250h-156v110v130q0 46 -0.5 141t-0.5 140v131v110h156v-256v-8q0 -23 0.5 -35.5t5 -33.5t13 -32t26 -20t42.5 -9q103 0 103 135v259h155v-503z" />
    <glyph glyph-name="periodcentered" unicode="&#xb7;" horiz-adv-x="337" 
d="M271 256q0 -42 -29.5 -72t-72.5 -30t-73 30t-30 72t29.5 72t72.5 30t73 -29.5t30 -72.5z" />
    <glyph glyph-name="periodcentered" unicode="&#x22c5;" horiz-adv-x="337" 
d="M271 256q0 -42 -29.5 -72t-72.5 -30t-73 30t-30 72t29.5 72t72.5 30t73 -29.5t30 -72.5z" />
    <glyph glyph-name="onesuperior" unicode="&#xb9;" horiz-adv-x="753" 
d="M376 1048h-1q57 0 98.5 -29.5t41.5 -81.5q0 -54 -40.5 -83.5t-96.5 -29.5q-57 0 -98.5 28.5t-41.5 82.5q0 53 40.5 83t97.5 30zM755 0h-177l-60 155h-282l-61 -155h-178l298 755h166zM432 937l1 -1q0 20 -17.5 33.5t-38.5 13.5t-38.5 -13.5t-17.5 -32.5q0 -23 16.5 -35
t39.5 -12q22 0 38.5 12.5t16.5 34.5zM472 284l-93 264h-2l-94 -264h189z" />
    <glyph glyph-name="guillemotright" unicode="&#xbb;" horiz-adv-x="562" 
d="M535 320l-167 -231l-90 63l128 168l-125 169l86 62zM311 320l-167 -231l-89 63l128 168l-126 169l87 62z" />
    <glyph glyph-name="onehalf" unicode="&#xbd;" horiz-adv-x="1010" 
d="M909 0h-377l198 198q63 63 63 117q0 27 -19 46.5t-48 19.5q-28 0 -45.5 -16t-19.5 -42v-10q0 -7 1 -12h-120q3 65 39 108q51 59 143 59q77 0 129.5 -43t52.5 -112q0 -44 -20 -76.5t-61 -69.5l-88 -80h172v-87zM700 754l-440 -758l-86 4l440 758zM280 303l-109 -1v365h-72
l3 87h178v-451z" />
    <glyph glyph-name="Adieresis" unicode="&#xc4;" horiz-adv-x="753" 
d="M585 940q0 -37 -25.5 -62.5t-61.5 -25.5t-62 25.5t-26 61.5t25.5 61.5t62.5 25.5q35 0 61 -25.5t26 -60.5zM256 852q-36 0 -62 25.5t-26 61.5t25.5 61.5t61.5 25.5t62 -25.5t26 -60.5q0 -37 -25.5 -62.5t-61.5 -25.5zM755 0h-177l-60 155h-282l-61 -155h-178l298 755h166
zM471 284l-92 264h-2l-94 -264h188z" />
    <glyph glyph-name="Eacute" unicode="&#xc9;" horiz-adv-x="542" 
d="M388 982l-162 -150l-73 50l133 168zM483 0h-416v755h416v-143h-249v-155h238v-142h-238v-172h249v-143z" />
    <glyph glyph-name="Odieresis" unicode="&#xd6;" horiz-adv-x="881" 
d="M474 939q0 36 25.5 61.5t61.5 25.5t62 -25.5t26 -60.5q0 -37 -25.5 -62.5t-61.5 -25.5t-62 25.5t-26 61.5zM232 939q0 36 25.5 61.5t61.5 25.5t61.5 -25.5t25.5 -60.5h1q0 -37 -25.5 -62.5t-61.5 -25.5q-37 0 -62.5 25t-25.5 62zM849 335q-18 -158 -132 -257.5
t-277 -99.5q-178 0 -295.5 116t-117.5 294q0 165 123 276.5t289 111.5q153 0 271.5 -95.5t138.5 -242.5q6 -51 0 -103zM678 388l1 -1q0 91 -70.5 159.5t-168.5 68.5q-97 0 -168 -68t-71 -159q0 -105 69.5 -177t168.5 -72t169 72t70 177z" />
    <glyph glyph-name="Udieresis" unicode="&#xdc;" horiz-adv-x="755" 
d="M499 1026h-1q36 0 61.5 -25.5t25.5 -60.5q0 -37 -25 -62.5t-61 -25.5q-37 0 -62.5 25t-25.5 62q0 36 25 61.5t63 25.5zM256 852h1q-37 0 -63 25t-26 62q0 36 25.5 61.5t62.5 25.5q36 0 61.5 -25.5t25.5 -60.5q0 -37 -25.5 -62.5t-61.5 -25.5zM692 306q0 -81 -14 -137.5
t-59 -101.5q-85 -85 -241 -85q-157 0 -242 84q-47 49 -60.5 108t-13.5 147v433h167v-408q0 -105 25 -152q35 -65 123 -65q87 0 124 65q24 45 24 151v409h167v-448z" />
    <glyph glyph-name="germandbls" unicode="&#xdf;" horiz-adv-x="628" 
d="M604 255q0 -55 -20 -108t-57 -88q-74 -68 -206 -73h-7q-4 0 -12.5 -0.5t-12.5 -0.5h-7v133q65 0 109.5 40.5t44.5 104.5t-45 105t-109 39v126q47 -2 76 20t29 68q0 38 -23.5 61.5t-61.5 23.5q-51 0 -71 -38q-12 -24 -12 -86v-582h-155v321h-53v125h52v155q0 119 56 174
q68 65 185 65q101 0 166.5 -55t65.5 -154q0 -93 -88 -154q78 -29 117 -82t39 -140z" />
    <glyph glyph-name="agrave" unicode="&#xe0;" horiz-adv-x="658" 
d="M447 632l-73 -52l-163 150l102 69zM594 0h-155v63h-2q-23 -38 -66.5 -58.5t-92.5 -20.5q-110 0 -182 78.5t-72 189.5q0 110 71 188.5t180 78.5q105 0 163 -72v56h156v-503zM313 384h1q-58 0 -94 -39t-36 -93q0 -57 35 -95t95 -38t95 38t35 95q0 56 -35.5 94t-95.5 38z
" />
    <glyph glyph-name="acircumflex" unicode="&#xe2;" horiz-adv-x="658" 
d="M532 650l-69 -74l-135 105l-136 -105l-68 73l203 153zM594 0h-155v63h-2q-23 -38 -66.5 -58.5t-92.5 -20.5q-110 0 -182 78.5t-72 189.5q0 110 71 188.5t180 78.5q105 0 163 -72v56h156v-503zM313 384h1q-58 0 -94 -39t-36 -93q0 -57 35 -95t95 -38t95 38t35 95
q0 56 -35.5 94t-95.5 38z" />
    <glyph glyph-name="adieresis" unicode="&#xe4;" horiz-adv-x="658" 
d="M363 688h-1q0 36 25.5 61.5t62.5 25.5q35 0 61 -25.5t26 -60.5q0 -37 -25.5 -62.5t-61.5 -25.5t-61.5 25t-25.5 62zM120 688q0 36 25.5 61.5t61.5 25.5t62 -25.5t26 -60.5q0 -37 -25.5 -62.5t-61.5 -25.5t-62 25.5t-26 61.5zM594 0h-155v63h-2q-23 -38 -66.5 -58.5
t-92.5 -20.5q-110 0 -182 78.5t-72 189.5q0 110 71 188.5t180 78.5q105 0 163 -72v56h156v-503zM313 384h1q-58 0 -94 -39t-36 -93q0 -57 35 -95t95 -38t95 38t35 95q0 56 -35.5 94t-95.5 38z" />
    <glyph glyph-name="ccedilla" unicode="&#xe7;" horiz-adv-x="482" 
d="M432 21q-64 -37 -136 -37q-113 0 -192.5 75.5t-79.5 187.5q0 119 80 195.5t198 76.5q70 0 129 -36v-136q-52 45 -108 45q-58 0 -98.5 -41t-40.5 -99q0 -60 40 -100.5t100 -40.5q62 0 108 46v-136zM347 -84l-142 -143l-71 44l123 156z" />
    <glyph glyph-name="egrave" unicode="&#xe8;" horiz-adv-x="590" 
d="M413 632l-73 -52l-163 150l102 69zM566 226h-387q-1 -62 32.5 -96t94.5 -34q70 0 102 55h149q-23 -81 -92 -124t-158 -43q-126 0 -205 71.5t-79 195.5q0 121 75.5 194.5t197.5 73.5q125 0 195.5 -74t74.5 -201v-18zM304 416q-48 0 -81.5 -26t-41.5 -71h239
q-8 45 -39.5 71t-76.5 26z" />
    <glyph glyph-name="eacute" unicode="&#xe9;" horiz-adv-x="590" 
d="M413 731l-162 -151l-74 51l134 168zM566 226h-387q-1 -62 32.5 -96t94.5 -34q70 0 102 55h149q-23 -81 -92 -124t-158 -43q-126 0 -205 71.5t-79 195.5q0 121 75.5 194.5t197.5 73.5q125 0 195.5 -74t74.5 -201v-18zM304 416q-48 0 -81.5 -26t-41.5 -71h239
q-8 45 -39.5 71t-76.5 26z" />
    <glyph glyph-name="ecircumflex" unicode="&#xea;" horiz-adv-x="590" 
d="M499 650l-70 -74l-135 105l-136 -105l-67 73l202 153zM566 226h-387q-1 -62 32.5 -96t94.5 -34q70 0 102 55h149q-23 -81 -92 -124t-158 -43q-126 0 -205 71.5t-79 195.5q0 121 75.5 194.5t197.5 73.5q125 0 195.5 -74t74.5 -201v-18zM304 416q-48 0 -81.5 -26t-41.5 -71
h239q-8 45 -39.5 71t-76.5 26z" />
    <glyph glyph-name="edieresis" unicode="&#xeb;" horiz-adv-x="590" 
d="M417 775q35 0 60.5 -25.5t25.5 -60.5q0 -36 -25.5 -62t-60.5 -26q-37 0 -63 25t-26 62q0 36 25.5 61.5t63.5 25.5zM86 688q0 36 25.5 61.5t62.5 25.5q35 0 60.5 -25.5t25.5 -60.5h1q0 -37 -25.5 -62.5t-61.5 -25.5t-62 25.5t-26 61.5zM566 226h-387q-1 -62 32.5 -96
t94.5 -34q70 0 102 55h149q-23 -81 -92 -124t-158 -43q-126 0 -205 71.5t-79 195.5q0 121 75.5 194.5t197.5 73.5q125 0 195.5 -74t74.5 -201v-18zM304 416q-48 0 -81.5 -26t-41.5 -71h239q-8 45 -39.5 71t-76.5 26z" />
    <glyph glyph-name="icircumflex" unicode="&#xee;" horiz-adv-x="289" 
d="M348 650l-70 -74l-135 105l-136 -105l-67 73l202 153zM221 0h-155v503h155v-503z" />
    <glyph glyph-name="idieresis" unicode="&#xef;" horiz-adv-x="289" 
d="M266 775h-1q36 0 61.5 -25.5t25.5 -60.5q0 -37 -25 -62.5t-61 -25.5q-37 0 -62.5 25t-25.5 62q0 36 25 61.5t63 25.5zM-65 688q0 36 25.5 61.5t62.5 25.5q36 0 61.5 -25.5t25.5 -60.5q0 -36 -25.5 -62t-60.5 -26q-37 0 -63 25t-26 62zM222 0h-156v503h156v-503z" />
    <glyph glyph-name="ocircumflex" unicode="&#xf4;" horiz-adv-x="639" 
d="M523 650l-69 -74l-136 105l-135 -105l-68 73l203 153zM616 251q0 -120 -86 -193.5t-210 -73.5t-210.5 72.5t-86.5 194.5q0 121 86 194.5t210 73.5t210.5 -73t86.5 -195zM452 251h1q0 56 -37 94.5t-97 38.5q-59 0 -96 -38.5t-37 -94.5t36.5 -94t95.5 -38q60 0 97 37.5
t37 94.5z" />
    <glyph glyph-name="odieresis" unicode="&#xf6;" horiz-adv-x="639" 
d="M353 688q0 36 25.5 61.5t61.5 25.5t62 -25.5t26 -60.5q0 -37 -25.5 -62.5t-61.5 -25.5q-37 0 -62.5 25t-25.5 62zM198 775q36 0 61.5 -25.5t25.5 -60.5q0 -37 -25 -62.5t-61 -25.5q-37 0 -62.5 25t-25.5 62q0 36 25 61.5t62 25.5zM616 251q0 -120 -86 -193.5t-210 -73.5
t-210.5 72.5t-86.5 194.5q0 121 86 194.5t210 73.5t210.5 -73t86.5 -195zM452 251h1q0 56 -37 94.5t-97 38.5q-59 0 -96 -38.5t-37 -94.5t36.5 -94t95.5 -38q60 0 97 37.5t37 94.5z" />
    <glyph glyph-name="divide" unicode="&#xf7;" 
d="M270 461q0 28 19 47.5t47 19.5t47.5 -19.5t19.5 -46.5q0 -28 -19 -47.5t-47 -19.5t-47.5 19t-19.5 47zM593 191h-513v131h513v-131zM403 52v1q0 -28 -19 -47.5t-47 -19.5t-47.5 19t-19.5 47t19 47.5t47 19.5t47.5 -19.5t19.5 -47.5z" />
    <glyph glyph-name="ugrave" unicode="&#xf9;" horiz-adv-x="622" 
d="M429 632l-73 -52l-163 150l102 69zM563 200q0 -107 -63 -161q-66 -55 -188 -55q-125 0 -191 56q-62 53 -62 160v303h155v-271q0 -60 20 -91.5t77 -31.5t77 31t20 91v272h155v-303z" />
    <glyph glyph-name="ucircumflex" unicode="&#xfb;" horiz-adv-x="622" 
d="M515 650l-70 -74l-135 105l-136 -105l-67 73l202 153zM563 200q0 -107 -63 -161q-66 -55 -188 -55q-125 0 -191 56q-62 53 -62 160v303h155v-271q0 -60 20 -91.5t77 -31.5t77 31t20 91v272h155v-303z" />
    <glyph glyph-name="udieresis" unicode="&#xfc;" horiz-adv-x="622" 
d="M433 775h-1q36 0 61.5 -25.5t25.5 -60.5q0 -37 -25 -62.5t-61 -25.5q-37 0 -62.5 25t-25.5 62q0 36 25 61.5t63 25.5zM102 688q0 36 25.5 61.5t62.5 25.5q36 0 61.5 -25.5t25.5 -60.5q0 -36 -25.5 -62t-60.5 -26q-37 0 -63 25t-26 62zM563 200q0 -107 -63 -161
q-66 -55 -188 -55q-125 0 -191 56q-62 53 -62 160v303h155v-271q0 -60 20 -91.5t77 -31.5t77 31t20 91v272h155v-303z" />
    <glyph glyph-name="oe" unicode="&#x153;" horiz-adv-x="1007" 
d="M984 226h-386q-2 -60 31.5 -95t94.5 -35q70 0 102 59h149q-23 -81 -92.5 -126t-157.5 -45q-145 0 -206 99q-80 -99 -210 -99q-125 0 -205.5 72t-80.5 194q0 121 81 195t203 74q132 0 211 -89q60 89 196 89q126 0 196 -74t74 -201v-18zM837 319v-1q-8 43 -40.5 70.5
t-76.5 27.5q-46 0 -80.5 -26.5t-42.5 -70.5h239h1zM451 250h1q0 54 -39 94t-93 40q-56 0 -95 -39.5t-39 -93.5t39 -93t93 -39q55 0 94 38t39 93z" />
    <glyph glyph-name="tonos" unicode="&#x384;" horiz-adv-x="385" 
d="M310 731l-162 -150l-74 51l134 167z" />
    <glyph glyph-name="dieresistonos" unicode="&#x385;" horiz-adv-x="289" 
d="M441 689q0 -37 -25.5 -62t-61.5 -25t-62 25t-26 61t25.5 61.5t61.5 25.5t62 -25.5t26 -60.5zM272 731l-161 -150l-74 51l134 167zM47 689q0 -37 -25 -62t-61 -25q-37 0 -62.5 25t-25.5 61t25 61.5t62 25.5q36 0 61.5 -25.5t25.5 -60.5z" />
    <glyph glyph-name="Alphatonos" unicode="&#x386;" horiz-adv-x="753" 
d="M213 731l-162 -151l-73 51l133 168zM755 0h-177l-60 155h-282l-61 -155h-178l301 762h160zM471 284l-93 263h-2l-49 -140.5t-44 -122.5h188z" />
    <glyph glyph-name="Epsilontonos" unicode="&#x388;" horiz-adv-x="542" 
d="M483 0h-416v754h416v-142h-249v-155h238v-142h-238v-172h249v-143zM45 731l-162 -151l-73 51l133 168z" />
    <glyph glyph-name="Etatonos" unicode="&#x389;" horiz-adv-x="786" 
d="M719 0h-167v325h-318v-325h-167v754h167v-297h317v297h168v-754zM44 731l-161 -151l-74 51l133 168z" />
    <glyph glyph-name="Iotatonos" unicode="&#x38a;" horiz-adv-x="302" 
d="M48 731l-161 -151l-74 51l133 168zM234 0h-167v754h167v-754z" />
    <glyph glyph-name="Omicrontonos" unicode="&#x38c;" horiz-adv-x="881" 
d="M852 389q0 -177 -117.5 -294t-294.5 -117q-178 0 -295.5 116t-117.5 294q0 165 123 276.5t289 111.5q167 0 290 -111.5t123 -275.5zM104 731l-162 -151l-73 51l133 168zM679 387q0 91 -70.5 159.5t-168.5 68.5q-97 0 -168 -68t-71 -159q0 -105 69.5 -177t168.5 -72
t169.5 71.5t70.5 176.5z" />
    <glyph glyph-name="Upsilontonos" unicode="&#x38e;" horiz-adv-x="683" 
d="M698 754l-273 -400v-354h-167v354l-273 400h199l157 -240l157 240h200zM-22 731l-162 -151l-73 51l133 168z" />
    <glyph glyph-name="Omegatonos" unicode="&#x38f;" horiz-adv-x="887" 
d="M860 0h-361v153q77 18 130.5 86t53.5 154q0 88 -71.5 158t-168.5 70t-169 -69.5t-72 -157.5q0 -114 86 -190q40 -34 87 -48v-156h-349v142h139q-61 32 -99 105t-38 155q0 159 123.5 266.5t291.5 107.5q108 0 203 -47.5t153 -134.5t58 -192q0 -82 -37 -157.5t-93 -102.5
h133v-142zM102 731l-161 -151l-74 51l134 168z" />
    <glyph glyph-name="iotadieresistonos" unicode="&#x390;" horiz-adv-x="289" 
d="M266 688q0 36 25.5 61.5t61.5 25.5t62 -25.5t26 -60.5q0 -37 -25.5 -62.5t-61.5 -25.5t-62 25.5t-26 61.5zM273 731l-162 -151l-74 51l134 168zM-40 775q36 0 61.5 -25.5t25.5 -60.5q0 -37 -25 -62.5t-61 -25.5q-37 0 -62.5 25t-25.5 62q0 36 25 61.5t62 25.5zM222 0
h-156v503h156v-503z" />
    <glyph glyph-name="Alpha" unicode="&#x391;" horiz-adv-x="753" 
d="M755 0h-177l-60 155h-282l-61 -155h-178l298 755h166zM471 284l-92 264h-2l-94 -264h188z" />
    <glyph glyph-name="Beta" unicode="&#x392;" horiz-adv-x="655" 
d="M616 210q0 -102 -79 -160q-70 -50 -189 -50h-281v754h257q104 0 160 -42q64 -49 64 -155q0 -108 -86 -154v-1q76 -11 115 -61.5t39 -130.5zM261 625h-27v-176h37q58 0 85 16q38 24 38 72q0 54 -43 75q-27 13 -90 13zM447 225q0 67 -62 88q-39 12 -114 10h-37v-194h42
q77 0 112 13q59 25 59 83z" />
    <glyph glyph-name="Gamma" unicode="&#x393;" horiz-adv-x="523" 
d="M481 612h-247v-612h-167v754h414v-142z" />
    <glyph glyph-name="Delta" unicode="&#x394;" horiz-adv-x="753" 
d="M755 0h-758l301 762h162zM525 130l-146 417h-2q-4 -12 -75 -212t-74 -205h297z" />
    <glyph glyph-name="Epsilon" unicode="&#x395;" horiz-adv-x="542" 
d="M483 0h-416v754h416v-142h-249v-155h238v-142h-238v-172h249v-143z" />
    <glyph glyph-name="Zeta" unicode="&#x396;" horiz-adv-x="680" 
d="M669 754l-377 -611h343v-143h-625l379 611h-321v143h601z" />
    <glyph glyph-name="Eta" unicode="&#x397;" horiz-adv-x="786" 
d="M719 0h-167v325h-318v-325h-167v754h167v-297h317v297h168v-754z" />
    <glyph glyph-name="Theta" unicode="&#x398;" horiz-adv-x="881" 
d="M852 389q0 -177 -117.5 -294t-294.5 -117q-178 0 -295.5 116t-117.5 294q0 165 123 276.5t289 111.5q167 0 290 -111.5t123 -275.5zM668 450v-1q-22 71 -85 118.5t-143 47.5q-79 0 -143 -47t-86 -118h457zM669 324v1h-455q14 -81 78.5 -133.5t146.5 -52.5q81 0 148.5 53
t81.5 132z" />
    <glyph glyph-name="Iota" unicode="&#x399;" horiz-adv-x="302" 
d="M234 0h-167v754h167v-754z" />
    <glyph glyph-name="Kappa" unicode="&#x39a;" horiz-adv-x="721" 
d="M731 0h-217l-274 334l-6 -4v-330h-167v754h167v-319h2l260 319h209l-315 -358z" />
    <glyph glyph-name="Lambda" unicode="&#x39b;" horiz-adv-x="753" 
d="M755 0h-177l-30 77l-26.5 67.5l-23.5 62l-30 82.5l-37 105l-53 153h-1l-78 -222l-47 -129l-41 -105.5l-36 -90.5h-178l301 762h162z" />
    <glyph glyph-name="Mu" unicode="&#x39c;" horiz-adv-x="966" 
d="M949 0h-166l-72 469h-2l-198 -477q-59 0 -73 35l-36 87l-46 115l-44.5 112.5l-38 93.5t-13.5 34h-2l-75 -469h-167l138 758h149l181 -458l186 460h151z" />
    <glyph glyph-name="Nu" unicode="&#x39d;" horiz-adv-x="874" 
d="M807 -5h-152l-419 503l-2 1v-499h-167v760h153q-1 1 101.5 -123.5l207.5 -251.5t109 -131l1 1v499h168v-759z" />
    <glyph glyph-name="Xi" unicode="&#x39e;" horiz-adv-x="617" 
d="M565 0h-514v142h175v172h-137v142h137v155h-175v143h514v-142h-173v-155h136v-142h-136v-172h173v-143z" />
    <glyph glyph-name="Omicron" unicode="&#x39f;" horiz-adv-x="881" 
d="M852 389q0 -177 -117.5 -294t-294.5 -117q-178 0 -295.5 116t-117.5 294q0 165 123 276.5t289 111.5q167 0 290 -111.5t123 -275.5zM678 387h1q0 91 -70.5 159.5t-168.5 68.5q-97 0 -168 -68t-71 -159q0 -105 69.5 -177t168.5 -72t169 71.5t70 176.5z" />
    <glyph glyph-name="Pi" unicode="&#x3a0;" horiz-adv-x="786" 
d="M719 0h-167v622h-318v-622h-167v754h652v-754z" />
    <glyph glyph-name="Rho" unicode="&#x3a1;" horiz-adv-x="624" 
d="M600 516q0 -121 -64 -182q-66 -62 -196 -62h-106v-272h-167v754h267q120 0 193 -59.5t73 -178.5zM426 511h1q0 66 -39.5 87t-111.5 21h-42v-212h43q79 0 108 19q41 24 41 85z" />
    <glyph glyph-name="Sigma" unicode="&#x3a3;" horiz-adv-x="680" 
d="M635 0h-625l237 388l-227 366h600v-142h-320l141 -223l-149 -246h343v-143z" />
    <glyph glyph-name="Tau" unicode="&#x3a4;" horiz-adv-x="517" 
d="M514 612h-168v-612h-167v611h-169v143h504v-142z" />
    <glyph glyph-name="Upsilon" unicode="&#x3a5;" horiz-adv-x="683" 
d="M698 754l-273 -400v-354h-167v354l-273 400h199l157 -240l157 240h200z" />
    <glyph glyph-name="Phi" unicode="&#x3a6;" horiz-adv-x="891" 
d="M861 388q0 -135 -90.5 -233t-243.5 -119v-36h-167v35q-153 21 -241.5 118.5t-88.5 234.5q0 124 91 216.5t238 114.5v35h167v-33q148 -22 241.5 -115t93.5 -218zM681 386q0 62 -42.5 112.5t-112.5 68.5v-379q72 19 113.5 72.5t41.5 125.5zM360 566q-67 -18 -109 -68.5
t-42 -110.5q0 -71 40.5 -124.5t110.5 -73.5v377z" />
    <glyph glyph-name="Chi" unicode="&#x3a7;" horiz-adv-x="730" 
d="M734 0h-200l-163 265l-174 -265h-202l278 399l-233 355h204l126 -221l127 221h205l-233 -354z" />
    <glyph glyph-name="Psi" unicode="&#x3a8;" horiz-adv-x="880" 
d="M825 493q0 -166 -64 -246q-75 -96 -237 -102h-1v-145h-167v144q-162 9 -238 103q-64 82 -64 245v262h167v-237q0 -36 2 -61.5t9.5 -57.5t21.5 -52.5t39.5 -36t61.5 -18.5v463h168v-463q44 3 73 23.5t41.5 56.5t16.5 68t4 77v238h167v-261z" />
    <glyph glyph-name="Omega" unicode="&#x3a9;" horiz-adv-x="887" 
d="M860 0h-361v153q77 18 130.5 86t53.5 154q0 88 -71.5 158t-168.5 70t-169 -69.5t-72 -157.5q0 -114 86 -190q40 -34 87 -48v-156h-349v142h139q-61 32 -99 105t-38 155q0 159 123.5 266.5t291.5 107.5q108 0 203 -47.5t153 -134.5t58 -192q0 -82 -37 -157.5t-93 -102.5
h133v-142z" />
    <glyph glyph-name="Iotadieresis" unicode="&#x3aa;" horiz-adv-x="302" 
d="M272 853v-1q-36 0 -62 25.5t-26 61.5t25.5 61.5t61.5 25.5t62 -25.5t26 -60.5q0 -37 -25.5 -62t-61.5 -25zM116 940h1q0 -37 -25.5 -62t-61.5 -25h-1q-36 0 -61.5 25t-25.5 61v1q0 35 25.5 60.5t61.5 25.5q12 0 23 -17t15 -20q6 -4 21 -13t21.5 -16.5t6.5 -19.5zM234 0
h-167v754h167v-754z" />
    <glyph glyph-name="Upsilondieresis" unicode="&#x3ab;" horiz-adv-x="683" 
d="M550 940q0 -37 -25.5 -62.5t-61.5 -25.5q-37 0 -62.5 25t-25.5 62q0 36 25.5 61.5t61.5 25.5t62 -25.5t26 -60.5zM220 1026q36 0 61.5 -25.5t25.5 -60.5q0 -37 -25 -62.5t-61 -25.5q-37 0 -62.5 25t-25.5 62q0 36 25 61.5t62 25.5zM698 754l-273 -400v-354h-167v354
l-273 400h199l157 -240l157 240h200z" />
    <glyph glyph-name="alphatonos" unicode="&#x3ac;" horiz-adv-x="658" 
d="M455 731l-162 -151l-73 51l133 168zM594 0h-155v62h-2q-24 -38 -66.5 -58t-92.5 -20q-110 0 -182 78.5t-72 188.5q0 111 71.5 189.5t180.5 78.5q47 0 91 -19t71 -54v57h156v-503zM444 250q0 55 -35.5 94.5t-93.5 39.5q-60 0 -95.5 -39.5t-35.5 -95.5t35.5 -93t94.5 -37
t94.5 37.5t35.5 93.5z" />
    <glyph glyph-name="epsilontonos" unicode="&#x3ad;" horiz-adv-x="494" 
d="M411 731l-162 -151l-74 51l134 168zM455 24q-80 -32 -162 -37q-99 -4 -176 39.5t-77 131.5q0 32 21 62.5t53 45.5q-29 14 -45.5 39t-16.5 53q0 77 66.5 119t151.5 42q87 0 179 -31v-137q-82 44 -156 46q-34 0 -63 -10.5t-29 -26.5q0 -43 64 -43h29h85v-107h-101
q-87 0 -87 -49q0 -22 22.5 -38.5t67.5 -16.5q98 0 174 46v-128z" />
    <glyph glyph-name="etatonos" unicode="&#x3ae;" horiz-adv-x="627" 
d="M418 731l-162 -151l-74 51l134 168zM564 0h-156v255v8q0 23 -0.5 36t-5 33.5t-13 32t-26 20.5t-42.5 9q-102 0 -102 -135v-259h-156v503h156v-68q56 84 159 84q186 0 186 -209v-310z" />
    <glyph glyph-name="iotatonos" unicode="&#x3af;" horiz-adv-x="289" 
d="M293 731l-162 -151l-73 51l133 168zM222 0h-156v503h156v-503z" />
    <glyph glyph-name="upsilondieresistonos" unicode="&#x3b0;" horiz-adv-x="622" 
d="M418 688h-1q0 36 25.5 61.5t62.5 25.5q36 0 61.5 -25.5t25.5 -60.5q0 -36 -25.5 -62t-60.5 -26q-37 0 -62.5 25t-25.5 62zM424 731l-162 -151l-73 51l133 168zM112 775q35 0 61 -25.5t26 -60.5q0 -37 -25.5 -62.5t-61.5 -25.5t-62 25.5t-26 61.5t25.5 61.5t62.5 25.5z
M563 200q0 -107 -63 -161q-66 -55 -188 -55q-125 0 -191 56q-62 53 -62 160v303h155v-271q0 -60 20 -91.5t77 -31.5t77 31t20 91v272h155v-303z" />
    <glyph glyph-name="alpha" unicode="&#x3b1;" horiz-adv-x="658" 
d="M594 0h-155v62h-2q-24 -38 -66.5 -58t-92.5 -20q-110 0 -182 78t-72 188q0 111 71.5 190t180.5 79q47 0 91 -19t71 -54v57h156v-503zM444 250q0 55 -35.5 94.5t-93.5 39.5q-60 0 -95.5 -39.5t-35.5 -95.5t35.5 -93t94.5 -37t94.5 37.5t35.5 93.5z" />
    <glyph glyph-name="beta" unicode="&#x3b2;" horiz-adv-x="632" 
d="M593 263q0 -123 -80 -199.5t-200 -78.5q-111 -3 -180 24q-24 10 -42 19.5t-24.5 14.5t-7.5 5v553q0 109 62.5 173.5t177.5 64.5q102 0 169.5 -57t67.5 -156q0 -50 -21 -84.5t-62 -63.5q64 -21 102 -76.5t38 -138.5zM423 263q0 62 -35 102.5t-96 40.5h-43v121h40
q41 0 72.5 22.5t31.5 65.5q0 41 -24.5 65.5t-65.5 24.5q-89 0 -89 -119v-465q34 -16 59 -16q63 -2 106.5 41.5t43.5 116.5z" />
    <glyph glyph-name="gamma" unicode="&#x3b3;" horiz-adv-x="585" 
d="M593 503l-226 -462v-300h-155v314l-220 448h173l128 -287l126 287h174z" />
    <glyph glyph-name="delta" unicode="&#x3b4;" horiz-adv-x="641" 
d="M615 253q0 -122 -85 -195.5t-209 -73.5t-210 72.5t-86 194.5q0 79 39 139.5t104 90.5q-58 53 -58 143q0 88 77 154t212 53q96 -13 156 -49l-54 -128q-59 45 -123 46q-36 0 -65.5 -14.5t-32.5 -46.5q-9 -56 85 -95q105 -43 177.5 -117.5t72.5 -173.5zM452 251h1
q0 55 -37 94t-96 39t-95.5 -38.5t-36.5 -94.5t36 -94t95 -38q60 0 96.5 37.5t36.5 94.5z" />
    <glyph glyph-name="epsilon" unicode="&#x3b5;" horiz-adv-x="494" 
d="M455 24q-80 -32 -162 -37q-99 -4 -176 39.5t-77 131.5q0 32 21 62.5t53 45.5q-29 14 -45.5 39t-16.5 53q0 77 66.5 119t151.5 42q87 0 179 -31v-137q-82 44 -156 46q-34 0 -63 -10.5t-29 -26.5q0 -43 64 -43h29h85v-107h-101q-87 0 -87 -49q0 -22 22.5 -38.5t67.5 -16.5
q98 0 174 46v-128z" />
    <glyph glyph-name="zeta" unicode="&#x3b6;" horiz-adv-x="457" 
d="M503 784q-139 -139 -231.5 -297t-67.5 -260q27 -111 205 -111h53v-287h-136v155q-31 2 -62.5 8t-67.5 21.5t-65.5 37.5t-53 58t-32.5 81q-22 108 37 245t177 258h-178v130h422v-39z" />
    <glyph glyph-name="eta" unicode="&#x3b7;" horiz-adv-x="627" 
d="M564 0h-156v255v8q0 23 -0.5 36t-5 33.5t-13 32t-26 20.5t-42.5 9q-102 0 -102 -135v-259h-156v503h156v-68q56 84 159 84q186 0 186 -209v-310z" />
    <glyph glyph-name="theta" unicode="&#x3b8;" horiz-adv-x="634" 
d="M600 400q0 -199 -74 -310.5t-209 -111.5q-137 0 -210 110t-73 310q0 197 76.5 312t206.5 115q134 0 208.5 -112.5t74.5 -312.5zM440 468v-1q-16 221 -123 221q-108 0 -124 -220h247zM440 340h-246v-4q3 -61 14.5 -109t39.5 -82.5t68 -34.5q60 0 90 66t34 164z" />
    <glyph glyph-name="iota" unicode="&#x3b9;" horiz-adv-x="289" 
d="M223 0h-156v503h156v-503z" />
    <glyph glyph-name="kappa" unicode="&#x3ba;" horiz-adv-x="636" 
d="M645 0h-217l-201 209h-8v-209h-156v502h155v-186l189 187h212l-245 -229z" />
    <glyph glyph-name="lambda" unicode="&#x3bb;" horiz-adv-x="616" 
d="M631 0h-175l-143 296l-148 -296h-179l244 450l-185 381h172z" />
    <glyph glyph-name="nu" unicode="&#x3bd;" horiz-adv-x="585" 
d="M597 503l-260 -513q-87 0 -103 31l-42 81l-56 108q-120 233 -148 293h173l132 -286l130 286h174z" />
    <glyph glyph-name="xi" unicode="&#x3be;" horiz-adv-x="484" 
d="M313 834h-1q50 -3 78 -7.5t66 -18.5l2 -140q-52 29 -105 36q-58 7 -104.5 -14t-52.5 -73q-4 -45 25.5 -75t78.5 -30h140v-114h-123q-64 0 -103 -40t-39 -100q0 -73 52.5 -106t138.5 -33h91v-291h-138v159q-122 2 -204 74t-82 193q0 57 30 120.5t81 85.5q-57 29 -77.5 91
t-2.5 121q24 71 89.5 118.5t159.5 43.5z" />
    <glyph glyph-name="omicron" unicode="&#x3bf;" horiz-adv-x="641" 
d="M616 251q0 -120 -85.5 -193.5t-210.5 -73.5q-123 0 -209.5 73t-86.5 193q0 121 86 195t210 74t210 -73t86 -195zM453 251v-1q0 58 -36 96t-97 38q-59 0 -96 -38.5t-37 -94.5t36.5 -94t95.5 -38q60 0 97 37.5t37 94.5z" />
    <glyph glyph-name="pi" unicode="&#x3c0;" horiz-adv-x="627" 
d="M564 0h-155v374h-190v-374h-156v502h501v-502z" />
    <glyph glyph-name="rho" unicode="&#x3c1;" horiz-adv-x="658" 
d="M617 250q0 -112 -71 -189t-180 -77q-105 0 -163 71v-314h-156v495q0 68 22.5 121t55 82t74 48t73.5 25t59 6q122 0 204 -79t82 -189zM456 250h1q0 56 -35.5 95t-94.5 39q-60 0 -95 -40t-35 -95q0 -56 35.5 -93t94.5 -37t94 37.5t35 93.5z" />
    <glyph glyph-name="sigma1" unicode="&#x3c2;" horiz-adv-x="486" 
d="M446 166q0 -87 -67 -134.5t-159 -47.5q-104 0 -193 55l53 113q75 -52 142 -52q25 0 47 14t22 38q0 12 -5.5 21t-18.5 15t-23 9.5t-32 9t-32 8.5q-54 15 -86.5 44.5t-32.5 89.5q0 81 60.5 125.5t145.5 44.5q89 0 160 -42l-57 -98q-42 32 -94 32q-22 0 -42 -11.5t-20 -30.5
q0 -10 4.5 -18t16 -13.5t17.5 -8t22.5 -7t18.5 -4.5q153 -34 153 -152z" />
    <glyph glyph-name="sigma" unicode="&#x3c3;" horiz-adv-x="669" 
d="M637 374h-78q23 -17 40 -55.5t17 -75.5q0 -117 -86 -187.5t-210 -70.5q-123 0 -210 70.5t-87 186.5q0 117 85.5 189t208.5 72h320v-129zM447 282q-12 41 -45.5 65.5t-82.5 24.5q-60 0 -96.5 -37.5t-36.5 -91.5q0 -55 36.5 -91.5t95.5 -36.5q50 0 83.5 25t45.5 66
q5 20 5 38q0 20 -5 38z" />
    <glyph glyph-name="tau" unicode="&#x3c4;" horiz-adv-x="394" 
d="M380 374h-111v-374h-155v374h-100v129h366v-129z" />
    <glyph glyph-name="upsilon" unicode="&#x3c5;" horiz-adv-x="622" 
d="M563 201q0 -108 -62 -161q-66 -56 -189 -56q-125 0 -191 56q-62 53 -62 160v303h155v-271q0 -60 20 -91.5t77 -31.5t77 31t20 91v272h155v-302z" />
    <glyph glyph-name="phi" unicode="&#x3c6;" horiz-adv-x="799" 
d="M770 251q0 -122 -83 -194t-207 -72h-1v-244h-156v243h-3q-122 0 -206.5 73t-84.5 194q0 110 66 178.5t173 83.5l21 -134q-47 -9 -72 -43.5t-25 -84.5q0 -58 34.5 -95t92.5 -38h4v398q1 0 70 -0.5t69 0.5q85 0 153 -27t111.5 -88.5t43.5 -149.5zM478 382v-263q61 0 95 36
t34 95q0 58 -33.5 95t-93.5 37h-2z" />
    <glyph glyph-name="chi" unicode="&#x3c7;" horiz-adv-x="659" 
d="M670 0h-202l-139 164l-138 -164h-203l243 271l-201 232h196l103 -122l103 122h200l-205 -231z" />
    <glyph glyph-name="psi" unicode="&#x3c8;" horiz-adv-x="781" 
d="M723 219q0 -108 -71 -169t-181 -65v-244h-155v243q-113 2 -186 59t-73 167v293h147v-271q0 -49 29.5 -83t80.5 -39v393h157v-392q51 7 78 38t27 82v272h147v-284z" />
    <glyph glyph-name="omega" unicode="&#x3c9;" horiz-adv-x="809" 
d="M778 250q0 -30 -4 -58.5t-18 -67t-38 -66.5t-69 -48t-105 -20q-95 0 -139 71q-44 -71 -140 -71q-51 0 -91 13t-64.5 36.5t-41.5 49.5t-24.5 57.5t-10.5 55.5t-3 48q0 28 5 56t21 63.5t42.5 64t74.5 52t111 31.5v-135q-90 -25 -90 -132q0 -60 24.5 -95.5t54.5 -35.5
q32 0 48 25t16 58v167h136v-166q0 -33 15 -58.5t47 -25.5q30 0 54.5 35.5t24.5 95.5q0 106 -89 131v136q63 -8 110.5 -31.5t74 -52t42.5 -64t21 -63.5t5 -56z" />
    <glyph glyph-name="iotadieresis" unicode="&#x3ca;" horiz-adv-x="289" 
d="M266 775h-1q36 0 61.5 -25.5t25.5 -60.5q0 -37 -25 -62.5t-61 -25.5q-37 0 -62.5 25t-25.5 62q0 36 25 61.5t63 25.5zM-65 688q0 36 25.5 61.5t62.5 25.5q36 0 61.5 -25.5t25.5 -60.5q0 -36 -25.5 -62t-60.5 -26q-37 0 -63 25t-26 62zM222 0h-156v503h156v-503z" />
    <glyph glyph-name="upsilondieresis" unicode="&#x3cb;" horiz-adv-x="622" 
d="M340 688h-1q0 36 25.5 61.5t62.5 25.5q35 0 61 -25.5t26 -60.5q0 -37 -25.5 -62.5t-61.5 -25.5t-61.5 25t-25.5 62zM97 688q0 36 25.5 61.5t61.5 25.5t62 -25.5t26 -60.5q0 -37 -25.5 -62.5t-61.5 -25.5t-62 25.5t-26 61.5zM563 200q0 -107 -63 -161q-66 -55 -188 -55
q-125 0 -191 56q-62 53 -62 160v303h155v-271q0 -60 20 -91.5t77 -31.5t77 31t20 91v272h155v-303z" />
    <glyph glyph-name="omicrontonos" unicode="&#x3cc;" horiz-adv-x="639" 
d="M462 731l-162 -151l-73 51l133 168zM616 251q0 -120 -86 -193.5t-210 -73.5t-210.5 72.5t-86.5 194.5q0 121 86 194.5t210 73.5t210.5 -73t86.5 -195zM452 251h1q0 56 -37 94.5t-97 38.5q-59 0 -96 -38.5t-37 -94.5t36.5 -94t95.5 -38q60 0 97 37.5t37 94.5z" />
    <glyph glyph-name="upsilontonos" unicode="&#x3cd;" horiz-adv-x="622" 
d="M452 731l-162 -151l-74 51l134 168zM563 200q0 -107 -63 -161q-66 -55 -188 -55q-125 0 -191 56q-62 53 -62 160v303h155v-271q0 -60 20 -91.5t77 -31.5t77 31t20 91v272h155v-303z" />
    <glyph glyph-name="omegatonos" unicode="&#x3ce;" horiz-adv-x="809" 
d="M551 731l-162 -151l-73 51l133 168zM778 250q0 -30 -4 -58.5t-18 -67t-38 -66.5t-69 -48t-105 -20q-95 0 -139 71q-44 -71 -140 -71q-51 0 -91 13t-64.5 36.5t-41.5 49.5t-24.5 57.5t-10.5 55.5t-3 48q0 28 5 56t21 63.5t42.5 63.5t74.5 52t111 33v-136q-90 -25 -90 -132
q0 -60 24.5 -95.5t54.5 -35.5q32 0 48 25t16 59v166h136v-166q0 -33 15 -58.5t47 -25.5q30 0 54.5 35.5t24.5 95.5q0 107 -89 132v136q63 -8 111 -31.5t74 -52t42 -64.5t21 -64t5 -56z" />
    <glyph glyph-name="endash" unicode="&#x2013;" horiz-adv-x="500" 
d="M501 257l-502 -1v130h502v-129z" />
    <glyph glyph-name="emdash" unicode="&#x2014;" horiz-adv-x="1000" 
d="M-1 256l1002 1v129h-1002v-130z" />
    <glyph glyph-name="afii00208" unicode="&#x2015;" horiz-adv-x="1000" 
d="M1001 257l-1002 -1v130h1002v-129z" />
    <glyph glyph-name="quoteleft" unicode="&#x2018;" horiz-adv-x="350" 
d="M293 753l-118 -311l-146 2l164 311z" />
    <glyph glyph-name="quoteright" unicode="&#x2019;" horiz-adv-x="350" 
d="M320 754l-164 -311l-100 2l118 311z" />
    <glyph glyph-name="quotedblleft" unicode="&#x201c;" horiz-adv-x="581" 
d="M523 753l-117 -311l-147 2l164 311zM292 753l-117 -311l-146 2l164 311z" />
    <glyph glyph-name="quotedblright" unicode="&#x201d;" horiz-adv-x="581" 
d="M551 754l-164 -311l-100 2l118 311zM320 754l-164 -311l-100 2l118 311z" />
    <glyph glyph-name="dagger" unicode="&#x2020;" 
d="M586 426h-178v-606h-143v605h-177v125h177v204h142v-203h179v-125z" />
    <glyph glyph-name="bullet" unicode="&#x2022;" 
d="M526 377q0 -78 -54 -133t-134 -55t-135 55t-55 133q0 79 54.5 134t134.5 55t134.5 -55t54.5 -134z" />
    <glyph glyph-name="ellipsis" unicode="&#x2026;" horiz-adv-x="1000" 
d="M935 85q0 -42 -30 -72.5t-72 -30.5t-72 30t-30 72q0 43 29.5 73t72.5 30q42 0 72 -30t30 -72zM602 85q0 -42 -30 -72.5t-72 -30.5t-72 30t-30 72q0 43 29.5 73t72.5 30q42 0 72 -30t30 -72zM269 85q0 -42 -30 -72.5t-72 -30.5t-72 30t-30 72q0 43 29.5 73t72.5 30
q42 0 72 -30t30 -72z" />
    <glyph glyph-name="perthousand" unicode="&#x2030;" horiz-adv-x="1394" 
d="M434 596q0 -83 -56 -131t-140 -48q-85 0 -140.5 47t-55.5 131q0 83 56 130t140 47t140 -47t56 -129zM736 758l-441 -758h-87l440 758h88zM907 168q0 -83 -56 -131t-140 -48q-85 0 -140.5 47t-55.5 131q0 83 56 130t140 47t140 -47t56 -129zM327 594q0 38 -25.5 63.5
t-63.5 25.5q-37 0 -63.5 -25.5t-26.5 -63.5q0 -37 26 -62.5t64 -25.5t63.5 26t25.5 62zM801 166q0 37 -26 63t-64 26q-37 0 -63.5 -25.5t-26.5 -63.5q0 -37 26 -62.5t64 -25.5q37 0 63.5 25.5t26.5 62.5zM1345 168q0 -84 -55 -131.5t-140 -47.5t-140.5 47t-55.5 131
q0 83 55.5 130t139.5 47t140 -47t56 -129zM1239 166h1q0 37 -26.5 63t-63.5 26t-64 -25.5t-27 -63.5q0 -37 26.5 -62.5t63.5 -25.5t63.5 25.5t26.5 62.5z" />
    <glyph glyph-name="Euro" unicode="&#x20ac;" horiz-adv-x="676" 
d="M629 29v202q-34 -41 -84 -64.5t-103 -23.5q-94 0 -159 62q-30 30 -47 63h272l28 70h-323q-2 24 -2 37v14q0 5 2 15h295l28 70h-304q27 62 82.5 99.5t126.5 37.5q54 0 104.5 -24t83.5 -67v202q-95 50 -194 50q-80 0 -154.5 -32t-131.5 -90q-75 -77 -99 -177h-64l-28 -70
h81q-1 -5 -1 -14v-13v-20q0 -5 2 -19h-54l-28 -70h94q29 -104 107 -175q121 -110 281 -110q77 0 189 47z" />
    <glyph glyph-name="trademark" unicode="&#x2122;" horiz-adv-x="940" 
d="M896 347l-79 -1v337h-2l-126 -337h-43l-126 337h-2v-337h-80v408h128l101 -257l100 257h129v-407zM383 683h-126v-337h-86v336h-127v72h339v-71z" />
    <glyph glyph-name="FL0023" unicode="&#xe000;" horiz-adv-x="404" 
d="M281 313l-108 -1v365h-72l3 87h177v-451z" />
    <glyph glyph-name="FL0025" unicode="&#xe001;" horiz-adv-x="404" 
d="M383 444q0 -67 -53.5 -107t-127.5 -40q-84 0 -138 48q-56 54 -52 108h107q4 -29 27 -46.5t54 -18.5q32 0 53.5 16.5t21.5 47.5q0 28 -20.5 46.5t-49.5 20.5q-5 0 -13 -1t-12 -1v69h13q27 0 45 16t18 42q0 23 -16.5 37.5t-41.5 14.5q-28 0 -44 -16t-16 -42h-103
q8 68 53.5 105t118.5 37q65 0 108.5 -34.5t43.5 -93.5q0 -67 -57 -95q36 -9 58.5 -42.5t22.5 -70.5z" />
    <glyph glyph-name="FL0026" unicode="&#xe002;" horiz-adv-x="404" 
d="M385 313l-377 -1l198 198q63 63 63 117q0 27 -19 46.5t-48 19.5q-28 0 -45.5 -16t-19.5 -41q-1 -7 1 -23h-120q5 70 39 108q51 59 143 59q77 0 129.5 -43t52.5 -112q0 -44 -20 -76.5t-61 -69.5l-88 -80h172v-86z" />
    <glyph glyph-name="CR" horiz-adv-x="500" 
 />
    </font>
</defs>
</svg>
